<mxfile host="app.diagrams.net" modified="2024-04-24T12:50:01.887Z" agent="Mozilla/5.0 (Windows NT 10.0; Win64; x64) AppleWebKit/537.36 (KHTML, like Gecko) Chrome/124.0.0.0 Safari/537.36" etag="9kalC6K6kv8k5NDi-eUf" version="24.2.8" type="github">
  <diagram name="Page-1" id="5KDvzoG_d-YJvasXFiHj">
    <mxGraphModel dx="2463" dy="706" grid="1" gridSize="10" guides="1" tooltips="1" connect="1" arrows="1" fold="1" page="1" pageScale="1" pageWidth="850" pageHeight="1100" math="0" shadow="0">
      <root>
        <mxCell id="0" />
        <mxCell id="1" parent="0" />
        <mxCell id="qlU0DCxGw5GYlHzOYvTy-1" value="" style="rounded=1;whiteSpace=wrap;html=1;" vertex="1" parent="1">
          <mxGeometry x="-130" width="370" height="290" as="geometry" />
        </mxCell>
        <mxCell id="DpXfg-_9id3skqWG6rgp-1" value="" style="shape=image;verticalLabelPosition=bottom;labelBackgroundColor=default;verticalAlign=top;aspect=fixed;imageAspect=0;image=data:image/png,iVBORw0KGgoAAAANSUhEUgAAAwQAAAIICAYAAADQTiktAAAgAElEQVR4Aey9C7gcV3XnWyQZQmacCXncCcxlGBKSi5iQ5CYQoE1CIDwSCIlNbEICNxMyxK0DGL8YlMiQK8ejCGzivpYmgBJGEAzYxkh2EPaxkIMtPxB2Iu5BskaPIxPbyLbkh4wk62HZR6yZtatW1dq7dz27qru6+1/f16eq9nPt367Tvf61964KzjvvPOLPueeeaz5ynravOx3XMzMzY2xIq5PD6663aHmwL7w+3L4Bv8G4gB/4yf8Uvv/6rwX8f/QzaeJ3cJJ+37gtZ511Fr33ve+lc845J/YZ5FrCPvTxwAEc0q6BgP+JsIEACIAACIAACIAACIAACEwfARYJEATT1+9oMQiAAAiAAAiAAAiAAAgYAhAEuBBAAARAAARAAARAAARAYIoJQBBMceej6SAAAiAAAiAAAiAAAiBgBAH/wQYCIAACIAACIAACIAACIDB9BCAIpq/P0WIQAAEQAAEQAAEQAAEQiAlgylCMAgcgAAIgAAIgAAIgAAIgMH0EIAimr8/RYhAAARAAARAAARAAARCICUAQxChwAAIgAAIgAAIgAAIgAALTRwCCYPr6HC0GARAAARAAARAAARAAgZhALYLgOw/tp8tWf4ze+M7T6dVnvtl8+PivP3kpcRw2EAABEAABEAABEAABEACBdhIYSBA8ceQonTEzQ28/61V05+wpdHznM2jhnsB8+PgbN5xi4jgNp8UGAiAAAiAAAiAAAiAAAiDQLgKVBcGTJ07Qy087kz656qdjEfCdu55pjp/c9Qzat+UH4vAvX/k8+o0/fCdxHmwgAAIgAAIgAAIgAAIg4BIIgoDKfNz843TO7dyyZUuuyZyG0za9VRYE71n6Qbrsr18Yjwac/keLaNGv/xJ13/9C+o0zfo5+8fX/N1360X8fi4LPfer5xHmKbrNd56LozhbNWlO6PXT5qQF5q53tUnDq5bQnqsnY6k0YJ+i/wH3pudyUfwZfcnLTexPVhAPFgAAIgAAIgAAIgECDBMo4vmXSNmhy5aLF0c8SBUXSVDbAyVhJEOy5by/91h++Knb2r7/q2TRzbjhScPv6H6adtz7LxP3SG3+Rvrvt++N0v/G2VxHnzd5CRzxwnNvZyxMHPDt/XbE1CwKnPYWtdMRHkm8PXd7VTGapGwR06uUiU5KUOAIBEAABEAABEACBthMo4+SXSdvWdmc5/FlxTbTHCIKZmZlSZX/oY39J/7j2R+jpPQGd8ccvot9554vp3m+E04V2bHoWfejDzzci4Iuf/nF60at/mS7/6+eac87zoY99NLuuPZfTqcGpNHq/tj5BsOfyU8kVONkQJDbDBkmi9qYeNXKhonAIAiAAAiAAAiAAAq0mUMbJL5O2zY32Of6+sKbbUGmE4HV/cJoRAzet/RF63/k/ZZz99V/4Ubrnjh80AuF/3vJDdMGSF9D9dz6TeD0BTyVi8cCf1779d3PaFN7pzruhbpxfPb3GzWCEhZp25DjKPM2H76Zb5VhpMpxx56593pShyoLAqScHHJkpRFYbcnMgAQiAAAiAAAiAAAi0gkAZJ79M2lY0LsMILQD0cUaW2qMqCYJXvfVNRgTwdKBf+a1fMMevPv0l9LV1/5Ze9lu/aJ4u9IX/8RP04b94PvEUoj89O1xrwE8g4rx5mzjpadNfwvguJasKQudd34Xfc3lXjTL0x8sahaQON03NgiBLvKQAEdGSEt0XnCdM+jIgAARAAARAAARAoPUE2Pkt82l9g1IMLOPkl0mbUl2rgkUIcLv4eNhbJUHw6297sxEBB7d9H738TaEg4IXEW7/2Q3Thh59vRgS2fPXfmAXGt335h+m/vPdnTHoWBL92Rr4gMBDUHf7EaecYHkHwTCky6bVIcFA6d9u9zrM1Xak+QWBbEo6AaPFix0dnee1xMvWLJCcBTkEABEAABEAABECgxQTKOPll0ra4ybFpYykIXvv7v2um/3z1mh+hcz4QThk66+wX0q7bnmVGA/j9A2df8FO04YvPNul4yhCLAZ4y9Otvy5syFLMJD9iRZ2UsU4LMuc/x7xcKMtJg8nMZajqN/+67LqMpQcCahtvka0PSdmO7tDkJ9h4ZcZNTnjcjAkEABEAABEAABECgJQTKOPll0rakealmiBjgvT5OzdBARKURgj//yDIzPYgd/Lf9yYuIHzn6L3f8Kzrvgy+gF/7qL9N/XvyztHrVTxKvMXjV7/w8nftfQ9HAU4qWXvKR8s3Qd+5TnWntzEd34ZUAcOfXFxUE9uhEZDrboMr2jjZktTL37n+GGLHKDdPFYsmKwwkIgAAIgAAIgAAIjA+BMk5+mbRtJuATAL6wpttQSRDc98A+67Gj137ux8xUIXlLsexf+ZafJ55WJOdvePupdP+D+yu0KXTwzQ1zLQ50SdrJ1sdRGnPHPc+Jd8RG2l16VwC459os77FTT18aj/19acxAgxo58SVAGAiAAAiAAAiAAAiMCYEyTn6ZtG1tfpbjnxXXRHsqCQI2hF8y9sW//w/G2T+8/fvot9/xYvqjxT9Lr3jzL9ArfvsXzKjBysvCx42yILjsYz9NM0VeTMbOsDNVJpz6k0yxMQ64NUUmvFMe3803DrVaZ2DO+6cM8cWUVBWKjrgMbmSUL0kj031U2bmOufO+gKjMuB7XVlPtqdYIRNzxOq0+jhPgAARAAARAAARAAATGk0AZJ79M2jbSKOLwF0lTV9sqC4InT5yg17z9HfTlK58XjwDwY0fZ+T909/fRw9/8gTj8bz/+AnrZW84gzpO/RdN9rBX1iRiQ/KFISFbdxw52lMCK55EBzzSfUy+fNW8j5ovKfCzPPy6ITpV4s7fFAKfKHiGIpvWoMqxqPI49l+e2x1ij05rjpP1xGyyRE7UBOxAAARAAARAAARBoOQHtyxQ5bnlzMs3j9rHDn7eJKMhLN2i8EQT8p8r2xJGjdObMe+gPuq+iu2ZPoeM7nxGLAD6+c/YUE8dpOG2btlSnu01GwhYQAAEQAAEQAAEQAAEQaJjAQIJAbPvOQ/up96mP0xvfebp5zwC/a4CPL/u7v6m4ZkBKbm4PQdAcW5QMAiAAAiAAAiAAAiAwPgQqTxkanyb6LYUg8HNBKAiAAAiAAAiAAAiAwHQRmFpBMF3djNaCAAiAAAiAAAiAAAiAgJ8ABIGfC0JBAARAAARAAARAAARAYCoIQBBMRTejkSAAAiAAAiAAAiAAAiDgJwBB4OeCUBAAARAAARAAARAAARCYCgIQBFPRzWgkCIAACIAACIAACIAACPgJQBD4uSAUBEAABEAABEAABEAABKaCAATBVHQzGgkCIAACIAACIAACIAACfgJGEPAfbCAAAiAAAiAAAiAAAiAAAtNHAIJg+vocLQYBEAABEAABEAABEACBmACmDMUocAACIAACIAACIAACIAAC00cAgmD6+hwtBgEQAAEQAAEQAAEQAIGYAARBjAIHIAACIAACIAACIAACIDB9BCAIpq/P0WIQAAEQAAEQAAEQAAEQiAlAEMQocAACIAACIAACIAACIAAC00cAgmD6+hwtBgEQAAEQAAEQAAEQAIGYAARBjAIHIAACIAACIAACIAACIDB9BCAIpq/P0WIQAAEQAAEQAAEQAAEQiAkYQcB/sIEACIAACIAACIAACIAACEwfgRKCYJa6QUCB+nR680TzPeoEHeJDIk4jx03CdG2pWKdle5P2Fix7tqv4dmk2L9vI7Z+nXkddE50emcsgz+5hxZflOSS7ZruKmfv/VMmGYfzfuf9zAZn//9baW8mwKFMaz7RwXVeRNDo9jkEABEAABEBg9ARKTBkq8kNXJE0djbbrme91KBi6M2rbMHCrjHOvRMB8j3q5ikDXWrM9umjfsbE3oK62sbTNvoJrCkvlOWROmc2py5a6ysky1q2DzwMKrAsgK7+Oc8uSuLRwiR/WPs2OtHBtV5E0Oj2OQQAEQAAEQGD0BCZCEAxvZEJ3WM0//Hw3eyBRU7M9uql9x+HIQCVfsK+shgJSeQ6TU17b6rKlrnKy7PXU4YqurOxWnKcsE58WbmUewkmaHWnh2qQiaXR6HIMACIAACIDA6AnUIAj0D6A+pmg6kUyPUHe/B263U481VSmM63Y7FARRndHdbJnulDiyTjlWOm2vPTXmrBs4n7Sr6l1SF0JYZv80DMdGT1sv251iT2p73LpLnhdwBK1pMTFwm2MSzNPOhKfmXtIuK7mPZxlOEffZxLb+vrEqrHAS1aHnWVl91j8Ck3DScbqcFMYVrLOz6DokxhGGlu3Sjz57dFl8HFBw1sX+/ymrTE+bG+kfbZ+0lfdOuGWbtFeniY4bsVHbhWMQAAEQAAEQGIxASUEgTlu4Dx06zw+gbz3BbHeAOcduI3WdrDv0lCGO0/Obw3Pb+ZQ1B7ocfcy//WJv6ND0O4NOetfESueJ8xTb6zoh1rm2QR9z5c553J5KhtmZ2BEqPJqh7OC79knDojJVvDFbuNtVVjsry1P3O9sVJKM2xvmT66aaNf25nLabPlNOr1VnaE+Mry8uss3LuL/m8iGurVxCyDe0yYmX681rj6TV+bk8CRfr+DybRzyqZvGQ/FX3Yb1yA8HeyzXg2CrttdoQlSP/K7XaWLVtyAcCIAACIAAC/QRKCgL5MdQF6R9GdWx+/GwB0e8M6nLKHEc/tN67ysoGLtLYIXfvwjr47nWfE5Nmryd/VEpzC6gjW/psNBXr9qUdS7sb4p/KJCQTmqkXSEfXTdQuS1xFYZbTFXu9qrxBDrN4ptav2YaVJ9fNIMbovE4dxpaUazUrTjuhUXssxrrKyseOraYcdujtvu3rR689YVmdjhbuXKBTR9E2R22qr38cO2JmKjxqV197rTao9LXbGBuFAxAAARAAARAYmEDDgsB2bga2Ni6g/4c2jrJ+kMUxtu1IHAdVjsf5MGWmhbv1JAbUcmRGPYxjrGw0JevztGN/u2sxzBTi3tl1SraYKacxSmbaJnd+rbROOTWepvJMrV+zZUNy2lzJVqcOjy3xtZoV57kWLcaVbHMzObYaJDydKvrf8tinS7Dt4bIC6nQ6zoiRU4enzJhHX5vr7B/HjrghKtxjW5hMpWnUxtgoHIAACIAACIDAwASaEwTmx9C9AziwvVEB+kfXLdON43MZEXAdZZ02TNd/ZzV0NPrDdV7Xhgrns73o0a2cV9fpODo8BSN+tKu2QR9zGWntqWCbL4uxQ3E1ZkdPRuK4nGkS7CCGTBuyM5VnUU6OXakOoA9O0TC/LfEAiVVnaE96XP/oXcK4qD1Z6XJsLXC9JfYkZbGDn/xvJeGhJXltVnktVlntKBLn2iF5dHhoW2J7gTS12ij1YQ8CIAACIAACgxNoUBCI862mrcTezKCG6x9mtyxPnPkhFju04+SktdLpxcLhj79MD5BmsDNjwiTANaXUuV2HNb0qcr7DurpqqpJtf589qe0pZVh6Yrd8EQGRoDH2drrUlWkluh1yZ5lLd8tpmGcxTiHbcHF62M+1mGXRtPvPRFks9LXqctJxqpw0xla9VU64Dvkf4r2uPyrPsj36//Hao+yVayW6drL7RtcZltFM/2j7NCsn3Ndea1SgSRu1XTgGARAAARAAgcEIlBAEg1XUztz8g21PJ2qnnbBq+AQc52/4BqDGTALj0D/jYGMmZESCAAiAAAhMCQEjCGZmZnKbK3fH3X1uxjYn4LuX8V3tNhsK24ZPoDlnzv0fkvPht7F4jWJj2r54SXWlHH7/6LYXa0VzNharH6lAAARAAARAoBiB6RwhiIf69RSEYsCQaloIwJlrd0+PQ/+Mg43t7mVYBwIgAAIgMBwC0ykIhsMWtYAACIAACIAACIAACIBA6wlAELS+i2AgCIAACIAACIAACIAACDRHAIKgObYoGQRAAARAAARAAARAAARaTwCCoPVdBANBAARAAARAAARAAARAoDkCsSDYtGkT4QMGuAZwDeAawDWAawDXAK4BXAO4BqbrGogFQXOaAyWDAAiAAAiAAAiAAAiAAAi0lQAEQVt7BnaBAAiAAAiAAAiAAAiAwBAIGEHAf7CBAAiAAAiAAAiAAAiAAAhMHwEIgunrc7QYBEAABEAABEAABEAABGICmDIUo8ABCIAACIAACIAACIAACEwfAQiC6etztBgEChFY/J4ZKvMpVGiLEt31z3fR+845u1QbOT3na/v2ky//Tarz0/b2wr76CHz6M58u/D/BabGBAAhMBgEIgsnoR7SiQQKved819BNv+qT58PG0bGXEAKcdt+3s97+/sOOjWXC+tm8sBhbuCWr5cFmTuP35n/85dbtd81m6dOkkNrFSm/S1XuS4UiXIBAIg0DoCIxcEl1xySfylLF/OafuZmRm64447Wgcxy6BJat8ktSWrz9y4aRUELoe0c3Ea0uLbGi52V9m3tU1iV5YgeHpPQHvv+sFYLOz75jPpyd3PiM9dITEpgmDr1q300EMPCSJ6z3veE//28LFsnIbTTusm/w957S+aLq8cxIMACLSDwMgFQZrznxb+oQ99qB3kClqR1o608Da3L83mtPA2t6Vg95lk0yQI5Ee+6J4BSdoyTNuQVuyusm+D/Vk2pAmCL37mufSK3/k1ev6rXk9XfOp5dO3nn0P/12t/g37hN3+d/mblC7yiYBIEwXXXXWec/8WLF9O6devo4x//eCwG5PuLwzhOzjnPNG7y/+C2fea977H+19PSuflwDgIgMB4Exk4Q8CjBJz7xCVqzZo35fPazn6XvfOc7raUtPy5F921uX9E2SLo2t6XMBQNBkL6WgDmOq2MgdlfZl7l+RpHWJwiemg/o/+y8gdZ97jm0ZeO/pTPf/VL6vT95Gd365R+jm6/9cfqPv/p64tGCSRshmJubi518+W4quue807bJ/4PbbgnnPW9y7qar+/ycc86pu0iUN6YEcC0023FjJwh8X+QXXHBBs5QGKN1nb9mwtrSvrN2+9G1pS5kunSZBUJSLdgb0cdH8bUgndst+w8aNbTCrFhu0IOApQvd+41n0sUt/ml7226+2HP7vbvuB+Py33/lyuvAvFtGeO/41cR4RBuM+QsBTgHhkwPd9lBXGefQUo1o6ZgwKkf+HPFOLpssrJy8eTmAeoemJx7XQbF+PnSB4//vfT9/85jfp7LPPtr7gm8VUvXT9g3PPPfeYgh5++GFju5zzXtK1uX1iI+9lu/vuu43tcs57Sdfmtmh79fEVG3bQc97yt9bn/4gWFPPCYj7W8c99y9/SlV/dpYsYm2P5Qed93uamlXPOp4/zymlTvNgte7ZtUp48pAXB3378+WZkgB3+e+74odjRP7z9++nn3/ga2nXbvzFhD215phkxeN6pb6Dly382TjfugoD7VU8Fku+nvD3nmcZN/h+K7ptmBCewacLjUz6uhWb7yggC/jOqLe9LWcffeuuttHbtWvr2t79tvuA3bdoUO5+jsj+vXm0/p/WdS3jb25dlu7RB0rS9LVn9dsF/vzV+qpA8XShtv+x/3JlVVKvj9A++z1CJ5zg55r0+d49N5Jj80W2Sdk3Kk4e0IHj5W36NvvyFnzQOPt/55+lCfPd/xYqfod/6w1cSTyXi40e/9a9M+O1f+VFa9BuvjRcaT4Ig8K0ZOP/88+lLX/qS+fCxfHfJnvNM4+b+X+SdN80ITmDThMenfFwLzfbVWAkC/oLev38/PfXUU/TYY49ZC8OaxVS9dPlx4f0Xv/hFU9A3vvEN8+PDJxwu+7a3T7fFGE1E7giBpGl7W8T+tP27P/LVXFHwwb+5LS37WITrH3qfwRLPcXLMe33uHpvIMfmjF0m67Xr66acLteLkyZMxm0IZhpRIBMETO76Pfu71r6Hb1v+ocfb/7uPPNyKA1wrwmoFv/eMPm+lBb33Xy+jPP/xik4ZHDH7q1a+jh///UCCMsyDgR4vqpwnJ99N5551Huo/52CcKOO+0PZJU3kOQd6nKd0JeukHj63ACXzTzacJn9AzacC0MasMk5x+rKUOf+tSn6NFHH6Unn3ySHn/8cfr0pz8d39VpayfJD5Des6187u7b3j63DSzOJEzaIudtb4uBn/PnbR/6SqooGHcxwE2XH3Rxhl0cEu9L64tz87f9/IrPX0FaFOh2lrFdsyiTr8m0Igh4JODv//Z59PY/falx9n/nj15uRgs+sPQ/0a+85dfohqv/He3/5jPpjut/lF765nB9wcz5P0+9v/5pk57zj7MgkO8jd88jA+7GYW46OXfTTsL5g8cepou3/g29YeMf0y995XfNns853LfJdc573uTcl7bOsEEFAQuBl12yFZ8WMOC+GGQb9FoYpO5pyDtWgmB2dpY+97nP0b333ktXXHEF8Xnbv7DFPt7LJmsG3DUEbW+f2xZpk+ylfXze9raIrXn7N563rk8UnH3ZLXnZxiJeftDlB941WuI5XI4lrZzrODf/OJw/8MADdNPXvkayoFi3q6j9VfIULbtqOi0IPrP6efSH3V82Dv6pp/2qGRVYe8VzaMmFLzYjAWd/4CW0+/Z/baYJsQB4DwuCy34KgiB6aZn7/Va1T9qU7/aHt9ArbjiD1uz5Ej107BF66uTTZs/nHM7x7ibXOe95k3M3Xd3ngziBEAPtE0KDiIJBroW6r8tJLG+sBAF/Mb/vfe+j22+/3ez5XD5t7Ryxr+i+ze0r2gZJ1+a2FL1eTp4kOnXx1bEoOOujNxXN2vp08oMuP/BZBrtp5Zzz6OOsMsYhrkpbquRpmoUIAl44/J9e91rafMOzjYPPzj6PGLDjf9eNP0Ivft1r6fFtP2AEgIwiyJQhWVMwziMEPN0HU4bsq+3Bo/vplTecSTfv869/4nAWBZwuaxvWdT+IEwhBAEGQdQ0jLiTA63H5M3aCQJxNd9/WjtV2fuELXzBm8p7DZZN5+DqteyxpR7nXNsnohjwxSdul0/mOddpxOD7x9En65Xd9niZJDDB3+UEvu9d5x6H/ytgoLJrOU6b8KmlFELDjzy8i+8pV/86IAH78KD9Z6Gvrfpw6v/urdM3fP5f+cd2P0wt//XW07Ws/bNLwewle8obXTPyiYl5HMI2Lii/61iozMsDXFY8OnLX5Q/Ty/y0AeM/nvPFIAU8f4k3+J9L2JlGDfyAI2ufUDzIFCyMEDf6zVCyaxQBvEAQVARbNph1izsPnaXud1j0uWl+T6bRN0oa8MB0vx03aiLKLE0j7gc8L5xokTfHaxiNllXZVydM0DS0IPr7qP5rHjr7l/3k5/cvmHzIjA+zw/+TL30g8hYjfVMwi4Dt3PYtO/+NfIX7s6CWXvNCIg3FfQyCc8dhRIUH0+o1/TPsix/9PN19IL/nym+PPn3z9z0xCFga8toA3ub7T9knJzRxBEEAQyJU1yLUgZWDfTwCCoJ9JIyHiBPOeN3fPYeM4QuA+MUm3S7fZd9wIaBRamoD+gc/L7KaV87x84xYvi4zP+8AFdOnHPkY33HhD3ITLV11OF3zwv9IFH/hA/OF0zILztWnTgoAfNcpC4CMf+Rl61emvMo7+k7ufQTs2/RszKnBs5zNM2Bve/kr6fy96EX376z+EF5N1u+ZlZpP4YjJeQMxrBnjjkQEtCDiON46XYxPg+TOs74BBnEBMGWqfmMAIgeefacRBEARD6gDtEOsqyzjQklbnH8Wxboscsx2+Ywnz7Udhe16dvN7BZ2uZMC5jnDb5QS+7H6c2lrXVffIQs2FRcO7556XeKWUxwPnatGlBwHf5+cOO/3Nf+UbzlKE7b3w2nfFfXmZeRPb1659tnjbEcYf/5/fHIwOSj8sa521ubq7y/zbnnbSt7AiBtF9/T3CYnEt8U3sIgvY59Zgy1NTVPppyIQiGxF07lFwln7t7nSbteEjmZlajbZOE8sQk3S6dzncsedu099lZJaxNbcqzRX7Qy+7zyh33eHnyEI8IMBsZNXj/Oe834oCfSCQffkIRp2/b5hME7OB/9u+eZx4vyu8ZuPoz/56+9NnnmvUD/MjRNZ/8D31igPOMuyDgvrnuuuvMd+/ixYvNSy35PSnu/zeH6alFnGcSN3cNAU8b+pXrf494L48c5TUEnE5v+nuCw+Vcp2niuE5B8NKP3kvhbOnE0k3/8K1SjyQNyzhOf7+mXD7tRL90zX66lwYso4a2iE11tEnKyts3MkJw8SIKgiD6LKKLk+5t4OhiWhScQqdtzCua04lN4f6U/Ex5hTYSbwkCXkgwqu2SSy7p+2J2v6jzzrmMtm6T1L5Jaot7veRdY0Xj3XLbfC4/6LzP28qkzStrXOLXX3997PQsWfpndOjQoXEx3Tjxcoff3fObiR/4px+Mnf+HtjzTvK3YTSfnkyAIuOP4br+eAqSfPsTHsnGaSRwZkPbx04P4KULT+JShOhzfOsrIc5olPquurDjJX3RfZ1l5ddYuCDaeRqcESgRsPI1Oa1QRlBEERYSD/GeObt8aQTA6BKgZBBICmDI0Ezu/2vn3HSfUJvtIBMFHL/0o8RuJx2lLGyEQJ7/MflIEgdt//EhSEfrT9jZi/R4CXmDMawZ4776HQN5a7PsekDCXa93n9Y8Q1HFnfrAy8pxmic9y1LPiJH/RfZ1l5dVZuyDg0YFTTqPcG/a1XZgTLgj48WvYQAAEpouA/KCX3U8LpTvuuKN1awOKsmcnvs5P0XqRbnwI8PSgv9z6381Th3gBMa8t4HOZNlREDHCaprdhCILYIf76d+Pm3Pv1XfFUonCKTxh179f306Zouk+c7x94CpDE+/NxrExPivOt+RbFx07dYXhUKO923Rvbw053nE9NXXrpR3fR3z9KJLa/9B++S/TofnrHR1U9HlvdsnR7fXZv2nX8fz+k8rv0F1yumf4kdkZhZjrTcdLpRCjULggonJrjnY5jRg9k2k4yinDxIgkLKFgkwwmho79o0SkUxCMOG+m0U5K0YdJIEFzMIxNZU4EyhINlV0CxCaYtp5DYcBH9pTM9SZfZbyUwq0cAACAASURBVAeXs/E0tj/LLumrZG+NEEAQJGBwBAIgAAIgAAIg0A4C9QsC3S7twCZOt3GkxeGN5uqLM/+Or7MzHI4QxE67ON1qbYDEST69bkA74JJOHP7+uv2jEXG+uDm6LXzM6yXCsERAUCIQ+my125RutxIckeMv6ynYdhYjYpsIExEDvK9fEDCAxHF3net42v7Fi6hfNLgOdqDShGX68wTJqIRZv5CIjbg7IqEizjnvE0Ehx2w6CwuZWsT2aBu0fVyyPg/TxqMj0TqK2N5UuxIL5QiCQEhgDwIgAAIgAAIg0EoC9QuCfgdbO+iJ8xw5yOw4Rw5/X5zjEHP8X+wKRwJCAZA45FacypdZt0rH+fXHzWfF8ciAGpHgOF/62FZVT1G7TZnW6EB0+ey611uX2NeMIIjqju68G8fbuQtvHHNRC5HzHDrr2hmXY3HU0xx9lc5y0iM7zE477yrc2GWXyyMWiVjIKluXqY+5/LxzZYNzCEHgAMEpCIAACIAACIBAuwiMkyCQKTt8d72oY+066vpcH4tDLfvMuAKCwLJ1IEFgix4jFFR5Yq/sGxUExo8/JZwG5HG8zZVthfMogDjgjkNtpdP/E066Pkdc0rrponBPuRAEwgx7EAABEAABEAABEPAQGLkgMM5tMv/fN2VIpsZoERA67Em+/jg9RScZtdCOvj4Wh1r2aXFhePqUoXRbtT35drMdYV3JFKI82zi+dkFw8WnqEaB6mg875Hr6TXRx8eiALEI2znmKIIimIcVTcOJr03X03XNJmBUuIwLuSISbJ2yPDGyQGdlIs9fN656LXf17jBD0M0EICIAACIAACIBAiwjULwjsxiVz3v1OuXF8ozvunNO3qDhcPBuWK3PvTT5rSo2/fNexd895Wo/ZvIuKo7ho9y93/Iu1qNiIF1nfEN2199nq1hmKFynbb3fs/FttDNdhuOVJWt7XLgjMHfpk4W+ySFicbTcudLLNdKFTFtGitBEC03x2qpP8xab1CLcMh9wIESlXHHzO58mjpzctWqQWGbtp887Frv49BEE/E4SAAAiAAAiAAAi0iECdgkA7pnUcZzm+dZRfZxltsbV+QdCii3VMTYEgGNOOg9kgAAIgAAIgMC0EIAjsxcRVRQIEwbT8x5RvJwRBeWbIAQIgAAIgAAIgMEQCEAQQBHK5DXItSBnY9xOwBMHMzEx/itpCeF6TzJUK9/ECidrqaElBeq5X/GKLyDYrzrPQJU6mX5Qh7XIZ6jlnkqapvVu3Wgzjzt2Ln7PLU+EWxS/HkJd8WC8DUddE/6KdutvCbbAf81V3Da0rz8O/aRtN//b9czN7uV71cdPWSPn912/z15vUPZp94f8za0Fdmq3D7DO3r+S6SbMtJVyufVk4mJJsOoJnqau+a4OgQ7358Wr5IE4gT0+pekcd+eoRIi5HTBlq3/8fCwL+nHvuuRQ0+2Kypn9Qmi6/YOe5j5LaeBqdFr8Aj51j/eOmV8Kr8rkMa5GLxNltNG+iG9qPnV136OiLc+3EiblZLEyalHySv/Y91yc21154gQKH3N5c/gVMLpuk0LU7ZA6mDaOosyy8ptLX0fY6yijaPruuat9zXIa+aVG07klNx4IgEQHzvQ4FnR6NkyaAIGjGMXcd9WGdQxC097sGgqCuvuG7Ul4n3XlslNTnOm3R83P57iX/ENp3Me0fSu9KdCm39n1W3W5cVHkqCzEuJZ9E177n+qZIEOTyrx1wfM1mX7vD7ndu5yjqrJ9vtRLraHsdZRS13q3LPS9STpU8Rcod1zS2ICByz9vfrkEEAbcOowTtERSDiAHuy0GvhfZf7aO1cISCIPrivphf25xMJTJ3haLzxCnuTxvGcbiajvSi/0ynneLcHRqacxTaktgcdazH8Q9jWCi4owbRubnbehptjK+NqP1xgHseJ2zgwKnL4unExbVzePq0qOE7aWyPCILI5oGuu6ihpm+T6y+ZLRPWsWjRKRQEP0Y/rq/RJFFMq/6DdP7WdBJji0ew6j622igMXYvVtZx57Ubs4+vYLaeJ84w6rbbp7w3df4voIvpLNe2JbdRlRseFrqcm2pdVprYzsTu8Lvvb1X9tJHlOG0qf+e0N6w7jxHYz+Gr1n7Qn+X+Mv4uddOHAbX55Ot1ppyVTIONyDfrw/yd846m6hrx1pqTN6sKB41wBoM/D4263Q0HQpVmua75HHfV91Q0DqdcJqCNzjWa7ZpRhN82b8DBNZGgUV+cIRB1OIDui+IyewaCXcx3XwqA2THL+IQmC5Eta5pOHP6pBclednRDtRJpzcUD4y1ulNV+24kw7PyKcTzld/COnThvuy+QLP66TbS0ycmClUw6WsdhuY7Wh9KpNj9jLj0TcMC7PiYudbo7zsIhNsNsTBzd2wPWlXEsDXXfq2uq7JrUgGnZ78/hzvLIp9X9GpTFZFjkjV1GHFb52nfKi7M3uuE79/SN9FobHl3Op/tPtiMqX//HM66nZlvaXru3k2NDWxKF146UEHa6PJb6pvV2X/T3HcRn/UxfLtWmXYV3nBoFOV7Q8ta7L9K98l4TfcQlP4eLYILY5/2eSutm9FgDs7+spQxynHH0zehBQ7OAbcSDTjTgtiwbZR1azAIgzEM12Vf6aGgYnsCaQE1AMroVmO3FIgkCcd90Y50tTOygmmY7Xx2EZiaPvxvG5fGFfTIvkh1pX3fSxcS4ix8Mciz26Ytvpd6damB/D2FvhNmmnxleeLrvOY8W3ry0qLq1KzSJOUyBfnLaOA65PmLl1Z527cbxWOr1f47jMa7mO9pQow+UfOazhHU35v3T4yP9MlFfufpp9fE0mNuRfu7oeOU7yN3vU34emvr5rWfVtbv/pMvUxl5x33mxr7dLzbHHiU6+NYfUZ25P2PefYmnptNpxO96/nGkquLd2OSFBENvcLCLvX6j0Lnf7kfzgaCTCVcJw4/DI6oOMdB5+d/8B1+LVAmKVuA+sT4ATWe0WMc2m4FprtvTEVBOGdmdA3cX4AMufiNwtTl5449NpWlcL6MXF/COXHJM2JVeU0fmjztZ0/Oy7NlISFpCiWT1IPvuf60li6tuhzfcxWqL60+i+0sJWCIPp/MKNmls1+QWr1r5U+rReYkVyveu/j7fJMK7PO8JQ6PW0r3n+6TH3Mdued19m2vLLybFHxFg99bag0edUNHJ9VlxNn2asrbjid7t80G9LCIzPN9+HQFj47Tr9G5a4nMCMCZQVBOOrA04l49CGeVmTVM9gJnMDB+E1SblwLzfbmGAkCNbxrfeE6PwDMi+O9T+tpEObFp1EyzzZ0HOM7QdYwM9vANqv2cLzclY1NVM6n/hGK44d14PLV5/pY2ZPFwiRLyaeKqPeQ6/M5qFyLa4s+52PVT33XnUw/ia65wnXU27q+0tL46+vMtEXd+Y3/Z4STsFHt76uI8ZW5djVbX2FNhKXVGfZtPODR17eKjRaCBot+aphbft55E21MKzPPFhWv+9G6NlSatGpqC8+qy43jc9+1OYx0cm043/MxhzTb4gTxIvwkpKmjEoLAO2VIBIKMBMhe2ctCotOlbkeNNqjoQQ/hBA5KcHLy41poti+HJAj0nUP5Evd9ccsXLTdax4fH4YKysKz4h9z4JFH5KpDv9um1BM1iFHtVO5Utpm7+wVV3UnU02xqLB2Vocmdds1AJhnLYX7ex65TT6KtmsaVqc/wDzXlUuG5sCMNZpNl0Q9gecXTd9mSdh3Fp150RnnE7067dsG3meuS0fSyaaDvb7eMfOjDmOuwTzFGca59xDn1lJe0qfu26rJtou1tmRp1W27L7z3qvxqJF6vp1y887d+1r8jzPFh2fdm3oNE3aymVn1eWJs/pP/reaTueWz+fJ/0f87+OzzfoNkO+jppmWEQQybUjaIw5+uHhY7v7b6xBC+3ntgF5L0HSrUD4IgED9BIwg4D/t3twv4Xxrk+H//LRIAQJ+AuWvO385CAUBEACBySXQxGLiyaWFloFAOwlMpiDguzN9U3Da2QGwqs0EIAja3DuwDQRAoAUEzJSh8XrZWQuowQQQaB2BIUwZqqPNRR0zGfbWw/911I8yppNA0etuOumg1SAAAtNMIJxKFOgnFU0zDrQdBMacwJgIgjGnDPNBAARAAARAAARAAARAoKUEIAha2jEwCwRAAARAAARAAARAAASGQQCCYBiUUQcIgAAIgAAIgAAIgAAItJQABEFLOwZmgQAIgAAIgAAIgAAIgMAwCMSCYNOmTYQPGOAawDWAawDXAK4BXAO4BnAN4BqYrmsgFgTDUB98cWEDARCYXAL4H5/cvkXLQAAEQAAERk+gqd9ZCILR9y0sAIGJIdDUF9XEAEJDQAAEQAAEQGAAAk39zhpBwH+GsTXViGHYjjpAAATyCeB/PJ8RUoAACIAACIBAVQJN/c6mCoKDBw/SpZdeSuecc07pD+fj/O7WVCPcenAOAiAwGgL4Hx8Nd9QKAiAAAiAwHQSa+p1NnTLETj1/ZmdnS38kr9s1TTXCrQfnIAACoyGA//HRcEetIAACIAAC00Ggqd/ZVEHAIwODbL78TTViEDuRFwRAoD4C+B+vjyVKAgEQAAEQAAGXQFO/s60VBD/xpk+S73PJ5/6JPr7rC/SSL7/Z+3HB4RwEQGB4BJr6ohpeC1ATCIAACIAACLSXQFO/sxAE7e1zWAYCY0egqS+qsQMBg0EABEAABECgAQJN/c62VhA8+t3j9J1HDvV9hO1DRx8h93PgxHclGnsQAIEREGjqi2oETUGVIAACIAACINA6Ak39zrZWELSuB2AQCIBALoGmvqhyK0YCEAABEAABEJgCAk39zrZWEPjWD3AY1hBMwdWOJo4tgaa+qMYWCAwHARAAARAAgRoJNPU7C0FQYyehKBCYdgJNfVFNO1e0HwRAAARAAASYQFO/s0YQ8B938z02VNIEQSCHqXtf/jKNwBqCVLSIAIHWEijzP97aRsAwEAABEAABEGgpAd/vLPvleZ+85kAQ5BFCPAiAQGECvi+qwpmREARAAARAAARAIJNAU7+zlaYMpakQ3YJBRwiwhkDTxDEIjAeBpr6oxqP1sBIEQAAEQAAEmiXQ1O9sJUFQpKkQBEUoIQ0ITBaBpr6oJosSWgMCIAACIAAC1Qj4fmeL3KjPq621giDPcMSDAAi0j4Dvi6p9VsIiEAABEAABEBhPAkV+Z1kglN0qCwJXjbgVDzpC4JaHcxAAgfYTKPJF1f5WwEIQAAEQAAEQaCeBor+zZUVBJUHgq8QNgyBo54UEq0CgSQJFv6iatAFlgwAIgAAIgMCkEij6O+v65Xk8IAjyCCEeBECgMIGiX1SFC0RCEAABEAABEACBmIDvd5adf/cTZyh4AEFQEBSSgQAI5BPwfVHl50IKEAABEAABEACBIgSa+p2tJAjY4DwlkjZliBuCDxjgGpiMa8D98mrqi8qtB+cgAAIgAAIgMI0EmvqdrSwI8johTRC87QPX0KR88hggHgTaTID/Rwf5HDx4sK95TX1R9VWEABAAARAAARCYQgK+31l3vYB7XgSTEQQzMzN9aX0OvSTyVeSG+fJzI1gMrN325Nh/uB3YQGCcCfj+R33tWVhYoCeffJKOHj1Khw4doscff5zOOuss2rdvX19y3xdVXyIEgAAIgAAIgAAIVCLg+53VPrgcy75oJZVGCHyVuGE+ZwOCoGi3IB0INE9A/kefeOIJ4s/hw4fNh51+/vAIAH8OHDhADz/8sBEAe/fupfvuuw+CoPnuQQ0gAAIgAAIg0EfAJwg4Efvh2hfXx32FeAJKCQKpzLd3yxZnQ4dDEGgaOAaB0RKQ/1EIgtH2A2oHARAAARAAgaIE0gRB0fxp6UoJAimkiOoQZ0Py8B6CQNPAMQiMloD8j0IQjLYfUDsIgAAIgAAIFCXQKkFQxGhxNnRabsSZFyyl1zvPS33RB7fXvqbgS9dfSi8KXkHvuv44fWnrl+n10XFd6xewhkD3LI7HkYD8j0IQjGPvwWYQAAEQAIFpJCCCwDdbxw0rw6fSCAFX4FbqjhqIs6GNSQRB6Kizcx466wEFZ3y5dlEgzj8Ege4FHINASED+R9MEwbOe9Szzf441BLhiQAAEQAAEQKAdBEQQaGtcH9w912nTjisJAqlI9ly4PuZzcTZ0xT5BYESBuZv/brpw6/FGRAEEge4FHINASED+R32C4NnPfjaJIOD/bSwqxlUDAiAAAiAAAqMnUEQQsJWuX55neTsEwdbt9K5fDOj1nwgFQTjdJ3kNcxwuU38+wdOBwniOW/XBV8QjFjL9SIuA+Fjl86VLRixkqlFoF0Plj9jB6TBlKO/SQnzbCaQJguc85znkCgK+/vkxo3jKUNt7FfaBAAiAAAhMMoFWCgIGLs6yC1+cDR2eOkKgBEHovCfOd/9agICCX7yUVm09Tl/6xLtN/bFzb87DkYZYBMRrCFS+jPUFVj4uL2UqEwSB7lkcjyMB+R/VIwQveMELKE0Q8P86BME49jRsBgEQAAEQmBQCPkHAbRN/XPZl22tGCPiPu4mz4IYXPfflzxYE0V15z/ShC88IBYJ21t27+e65TquPOR1/ipQpIxUiOCQv7yEIil4JSNdWAvI/qgUBv4sA7yFoa4/BLhAAARAAgWknkCYIBuXSDkGgREDohNvrCYo47+yka8c/7ThMl0xR0uncMvicPzIlCVOGBr3ckL9NBCAI2tQbsAUEQAAEQAAE8gk0KgjOO++8PgvEWeiL8AxLyPCE7DmPL79vhCB0yNUUIbNOQJ1rsSBrCK6P1hpknGtHX+qQO/1adHxJTVcygsBMO0qegqRFgeTnMIwQ+K4MhI0TAfkfxQjBOPUabAUBEAABEJhmAmmCQHxw2ZdlNNCiYqmMK9cbn4uzocMTQZAsGA487weQqTphoxLnXDv5xnkvJQheQa8/I1l8rO/2y1oEU98Z747fWWCFB/aoBQSB7lkcjyMB+R+FIBjH3oPNIAACIAAC00jAJwi0Hy7Hsi/KqBZBwJXpivlYnA1tCDeCHWm56z7OewgC3bM4HkcC8j8KQTCOvQebQQAEQAAEppEABEE0n78tIgKCYBr/DSerzS9500dokI+Phu+LypcOYSAAAiAAAiAAAuUJ+H5n3Zvy+rxoDZVGCLhwrkx/dIUcLncfdThGCDQNHIPAaAmwGKgqsDmvb/N9UfnSIQwEQAAEQAAEQKA8gaZ+ZysLgrwmZAkCvrs+CZ88BogHgTYTEEFw0SduoQtXfY0+eNlGOu+SG+m9f3UDnXXRenrXh6+jd/zZOvO/eub5V9HvnfsFeus5V9DpZ3+GXvy6D5sXlbnta+qLyq0H5yAAAiAAAiAwjQSa+p0duiDI6ryLLrooKxpxIAACNRKAIKgRJooCARAAARAAgSEQSBMEetYOH5fdCgsCXbhbqZzrytNGCHQaHIMACIyOAATB6NijZhAAARAAARCoQsAnCLSPLmX6wiTOtzeCgP+4m8+hd9Nknfvy+xqhy6g6QvDP//zPdP7551O327U+n//85+l73/uergLHIAACEQEIAlwKIAACIAACIDBeBHy+tM/594VltbSSIOBK8iqqIgiyDM2K84kBEQcQBVnkEDfNBCAIprn30XYQAAEQAIFxJNCoICj7pmIBmCUMqgiCqiME4vwX3bOA4FEFbCAwzQQgCKa599F2EAABEACBcSTgEwR1tKPwGoKsynzCoIggmJ2dJRYBaR+OL7IVFQI6HYuCvG22G1DQ9dgw21WPXO2Sm2K+16Gg06P5vAraFj/fo07QoZ7X8Fnqpsa1rSGwpwgBCIIilJAGBEAABEAABNpDoKggyJvJ47ZopIIgb0QgL14aox39MseS37tn57jTpW7HcZCN06xEwHyPepYiYMc5yBEEgzjXg+T1trRg4KjqLWgekpUmAEFQGhkygAAIgAAIgMBICaQJArk579sXMXggQSCV+ioqMkLADv/CwtN08mTy4fOFhafo+LEnzMiBr2w3rIwI0GndcvQ53+Xv9OZJ9nEcjw5k3P3n9N0ei4msEYJBnOtB8satqHAwqnormIoshQhAEBTChEQgAAIgAAIg0BoCPkHgGw3whWU1opIgyBICUllRQXD8+FEKP0fo+PEjdOzYETp08FF68P75EQqCeerJyIAZKdDOPTvGgREL0tZ4z2l5ilFfnjgFEYX5hWE8JcmMPMjbn2UEgu2QsIDOuiElry5ejlV5nV5PTfdxHXt9ro8pbEe0gNwuw44LArFXKsd+HAhAEIxDL8FGEAABEAABEEgItEoQJGalHxUVBEePHlLz8RPn99492+K1BVyLTB9y9xyn7/qXOU613nLolTiIMySOerLEQKWz8seZ1IHjeBuRoKYmzXZDwcGjEUkFUX43ryo2PuQ0AUlWs6Yhnv/v5tfn7nHBMsTeuH4cjAMBCIJx6CXYCAIgAAIgAAIJAZ8gSGKrH1UaIeDq4jvc0R1kd2iiqCA4fPhxOnjwMTpwYB899uhD9MjDe2nvfbtpz44tsQjIa14ZEaDTppXrThMyDrV41zpTdBeeo6w8ZQVBVI7FNCyUOn2jEdpp18ao4776dR59zHn0uTrOKiPNXmUCDttPAIKg/X0EC0EABEAABEBAE0gTBJYP2eSbirUx4vzLnuP0MZ8XFQQP3L+b7tk1R7vuvot2bvsG7di6mbZt2URzd940IkHATnEyUpEA9k+LMWLhrIv9eVLXESjHm2EZB9tffhjdMXxDTeLk5QTuluXMWwKAM+ry1HFWGTn2uubgvJ0EIAja2S+wCgRAAARAAATSCPgEgeuDc15fWFqZHG5GCPiPu/kcekkjlciew/Uxn/vyu43g6T/bttxCm2++lm7bcDXduuEq89l045V0+8ZrRiMIvIuGwylCxiGf7anHcobhvPjY2vqcaSvWccI5jh3xlHUJUdZkBEI57W6x8XlYXiggwtGLIJ4ypNpiquZHqMp0JV12VhlhXF+74/pxMA4EIAjGoZdgIwiAAAiAAAgkBFxfmmNcHzwtLCml/2ggQSAV+gwpIgjqeg9B1puK9RQhfZz2HgJ+94DP0U2mDYXOMLfZfMTr1mxzBQGReccBlyH5zV13NTLB4SnvO+jLq+uWY5W3b0Gwigu63fQFxypdXxk+e6Vu7MeCAATBWHQTjAQBEAABEACBmECjgqDqm4pj6zwHRQSBJ1ulIH7rcBlRwGmn6k3FxnlPn5JUCToyjT0BCIKx70I0AARAAARAYMoI+AQBI4hvVEc3rMtiqbyoOK+iYQqCPFtGF++MJphOqtMxL1a+GVFIXc8wOjqoebQEIAhGyx+1gwAIgAAIgEBZAmmCoGw5bvrCgsBVHr5zXTgEgaYx7ONwnUDSR3WKkGG3BfU1RQCCoCmyKBcEQAAEQAAEmiEwckGQ1SxxPHUaCAJNA8cg0D4CEATt6xNYBAIgAAIgAAJZBHyCQPxwd59VjhtXeITAzcjnUrEvrg2CQF5i5rMPYSAw7QQgCKb9CkD7QQAEQAAExo2ATxC4bWD/vOxWWRDkVdYGQVAWBtKDwDQRgCCYpt5GW0EABEAABCaBQBFBwO3M89NdFqUFQdaogC68DYKgqRGCZd9aSa/Z8E66ed+dusk4BoGxIgBBMFbdBWNBAARAAARAgIoKgrKoCguCokJADGiDIBBbyu53Hvw2ZX1+/9Zz6CVffrP5sDg4+vSxslUgPQiMnAAEwci7AAaAAAiAAAiAQCkCrREEIgx8e92iNgiCqiME4uwX3b/pH99Ncwd26ObjGARaTwCCoPVdBANBAARAAARAwCLQqCCYmZmxKuMTn0PflygjwJe/qUaIGXW9+bioENDpXnb9W8UMa8/vAJCXEYcR/O6ADvXmVTJ+I7CdSEXyoSePTqHeKBwENT1i1LzMzLFT15l57L4fQZeT05bMcqPIMrY1wabPRre9qs/L2GqVqzhVLsMqsO8EgqAPCQJAAARAAARAoNUEmvKlC08ZKktnFIIgb0QgL17aqB39Ise//JXT6LP3XCfZ7b3r7BvnLqCOUgTzvY51bhfAZ8o5dCNNeUoEzPeoN+smGva5bS+3L4hfjGbHNWrZ0Ng4bXLrrdRIp8xKZWRngiDI5oNYEAABEAABEGgbAQiCAj3CDv/CwtN08mTy4fOFhafo+LEnqKgg+Nq+zZT1Of3m98RrCN5x2/n0L0/sTbeOncPYGSZi57jb61EnHhHgl4jpO+i+ojKcQxYcqnxf7uGHufbqc33csGVDY+O2yT2v0s46ysiuF4Igmw9iQQAEQAAEQKBtBCAICvQIO/zHjx+NPkfo+PEjdOzYETp08FF68P75woLArerxEwfpyYUTcfC5//TfiEcFPr1nLZ383sk43H+gHX45ZmdP7urrY2LFQJ0giN7xoNN0qDebxCUjDJzfHnGI7cgoq9vtUBD8PnU7anoLZ4yc6N19oxL2248TPZPYlExXcp1ZfZ52bCq3p1Mp+zu9norzlNHrxu/FKM/GZsDTvOI1MnFDozpT+0CJOmtUqKitdt9Xa29WGfFVER9AEMQocAACIAACIAACY0EAgqBAN7EgOHr0UOLMxY51QPfu2WYEgYwSpO11Nd+j79Fn77nWOP/n/dPyOIrFAYuEoluyjmCWutHd/Nlu5ECmOo+hcx46t+xUBslIgHGUlQNKibMe+6+uQz/bjaYlhWXFTrNVP+sBcY61IxuWH+eJG67TuPYm9qVPGXLyWzaHdkp7TBnx2gudL0wXr8Hg9sRiiw1NYyPtFCc6sTdunseeeDTG6oPIhvh6EyHHJRW1NSxjsPZmlZG0So4gCIQE9iAAAiAAAiAwHgQgCAr0Ezv5hw8/TgcPPkYHDuyjxx59iB55eC/tvW837dmxpdQIwb5jj9C7v740nhrE04SyphFxXOomTrfsjQ8arhtgRzd2tNUdcfsOtXYqw1oSx13VGuU3TmXhsrhscWATwWI5sqYsSdNfqBvzPwAAIABJREFUX2wrO8Sm8tAxTcJ1Xt0WfczlqnOu05oKpeJ0OuvYKUOZKiMvCRttkxZCobBJbBehoOsPC076wIkzvHz5nHTa9jram1mGhhEeQxD0M0EICIAACIAACLSZAARBgd5hQfDA/bvpnl1ztOvuu2jntm/Qjq2baduWTTR3502FBcGND9xKr5x9WywGiiws5jSpW+SozfL6AVnwy2Hdnr1+gMNi51yX5jqS4V3vuCyV1NxJ54jCZYXrGliUWOLEdVZ9dpWoIzFRt0Ufcwp1zmXXKQgiEWYEi8fu2Lm34pizz7FnW3UfKLtNQ9Pi3HTqvI72ZpaR9IAcQRAICexBAARAAARAYDwIQBAU6CcWBNu23EKbb76WbttwNd264Srz2XTjlXT7xmsKC4KXfuX00mIgUxDE01bEueTGsDPIc9X1neowLB4xiNvshGundbanHmEaOqJhfiePVZa2I5oy0+lSt+PaIul0uXFBcRv89kpenZ6P2S6J044zR/F0H4kL7RfRkz1lSPI45eewkbIt8cQ2iBAxnKVsh6fuA6tNEU+rHboMOXZsja4HsalSezPLcPuBCIKgnwlCQAAEQAAEQKDNBIYuCC699FLiT5UtLW9TjRAb63oPwU0PfZ1+7cY/KC0KxA7f3jh44mhGCfiudDz3XTIZR9Nd1Bo60eFC4DBOHMdEWER5kghngbLUpR3yuFLqdSRewtx0oUMsU2niajLsVU9WlUIdQSAiQGzvKrFgx+Uuso3f66Dttm22WFt2ayc9FCmmnUYkSVxYbqE+iMUAN9u1R8pz4+pob1YZqguiQwiCfiYIAQEQAAEQAIE2E2jKlzbvIeA/7nbw4EEjCPh9AmU/LAg4v7s11Qi3HjmXhcNyXmbPi4Yv+OcVsSj4/VvPoZ0Hv535KVM+0pYkYN2RL5m3luTasa+lwOYLyWEGQdB8F6AGEAABEAABEKiTQFO+dKogqNN4KaupRkj5Tey/+uDt9OoN76Bl31rZRPEosyABM5rijLAUzFpTsvETBHnMIAhqujRQDAiAAAiAAAgMiUBTvnTqm4qbaFdTjUizdZARgrQyET4sAmrqTt9ai2HZoOsZB0FQjhkEge5fHIMACIAACIBA+wk05UtPtCBof7fCQhAYHQEIgtGxR80gAAIgAAIgUIUABEEFanWPENRdXoUmIQsI1EYAgqA2lCgIBEAABEAABIZCAIJgKJhRCQhMDwEIgunpa7QUBEAABEBgMghAEFTox7rv6NddntukdevW0bFjx9xgnINAIwQgCBrBikJBAARAAARAoDECEASNoR1NwQ8//DBt376d5ubm4g8LjhUrVkAUjKZLpq5WCIKp63I0GARAAARAYMwJQBBU6MC67+gPWt73vvc9uvXWW+nCCy+kbreb+vnkJz9ZobXIAgLlCEAQlOOF1CAAAiAAAiAwagIQBCPogbrefMymnzhxglatWmVEwOLFi6nX69HatWtp/fr18Wfp0qW0ZMkS4tGDZjd+hKb7ZuKkRvNWZettu0ncaI8iu81jSN03No/WsnGsXQuCm+95ij542UY675Ib6b1/dQNdv+MEvevD19E7/mwdve0D19AX547Q7537BXrrOVfQ6Wd/hl78ug/Tvn37+prd1BdVX0UIAAEQAAEQAIEpJNDU7+xEv5hs0Dv6efnz4vV1unr1aiMGli9fTvv379dR8fGaNWsaEgPuM/TD806nQ735uProQJxuX5ybdtjnbjuGXf9k1acFwYWrvkZnvu/TsSA466L11Dnz/4sFwZnnX0U/95v/DYJgsi4BtAYEQAAEQGDMCEAQjKDD2OFfWHiaTp4MP0EQmPOFhafo+LEnqKgg2Lp1qxEDy5Yty1wfwKMIzWyuIx2ed7sd6riKYLZLAU9nau0IQRuFSjO91nSpriDgEYKv7j5hRghYEPAIwXV3P2lGCFgQYISg6R5B+SAAAiAAAiCQTaBRQXDeeedl115TbFONSDOvqMOelf/48aMUfo4QC4Jjx47QoYOP0oP3zxcWBCtXrjSCYOfOnWlVWeE8ipBp+3yPOtG0mU6vZzvvKi4IunQDyR3/cIpN0J0lMmHsWHNclzgk3PhNtxKuHG+nzDC9/VZcUyz5wohmu1Hd7jQlVW5eO8I6XWEjdicCJ2lzh1jw8LnJq+rifgzt5fxuXn8bpKZJ2vsEAU8ZeuO7PkEiCHjKEKeDIJiknkdbQAAEQAAExpVAU7403lSccUWwU3706CEjBNiJ1J9792wzTrs47ml7Lp7j2MkvsrFo4AXHLCL8GzuwiUNrz/d3HObZbjQC4ITHgiB01mPnmJ3mTo/mVbw4zPFAgpRpRhISKWFs9YVZjdB2VG2H7gcRM2FZyWiH/9xqZzwC4qTNbYPVoLE+0YIAawjGuithPAiAAAiAwJQQgCCo0NHipFfIarJw/sOHH6eDBx+jAwf2GUHwyMN7ae99u2nPji3Zd/FTKs2aFsTvIOBpRSwIeJqRd4uddollhza6m+/cBTcCxnjBKo3Jps5VeXwnP3SanXhHDJlRhqiuxAknIl8Y18dOdlyGstWIj0Ha4cnrto/PjV0iHsI83rbGaYP+qVRhton6qwUB1hBMVNeiMSAAAiAAAhNKAIJgBB3LguCB+3fTPbvmaNfddxmndsfWzbRtyyaau/Om0oKAnx7EC4d9Gy805lEEFgO8ADl1Uw58mMZ13m3Hty+NCVB5zDSfDvVmZXSAE6h4jzMdlhn+DUcoREh4wqz8MiUpctIzBUGRdoglyl4T5JxbNoR5UgVBVKSvXVLbpOxdQYA1BJPSs2gHCIAACIDApBKAIKjQs3WMEGzbcgttvvlaum3D1XTrhqvMZ9ONV9LtG68pJQhYDPAjRfnRovpRo/zoUX4E6czMjBED/GjSrFGE0FlPHPD+KUO+u9uOg6wdfuYa3cFP7vbr9HzsKzPpELYhyRuGx2Fctjj+xjGXtQlhuTKNp1o7xAZtr2lQMmpikth12SMGbl4pkwcW+tuVxI7/kU8QYA3B+PcrWgACIAACIDC5BCAIRtC3db6HgF82lvUyMn5ZGb+0jF9elrupKTjZi3GTdw3EC3u9U4j4zr2+I+84ycaRV3P3uQxlQ7xw1xemFxp3utTVjzpV6Yu1I3Tsk+lHIlQce13Bw0CtNogo4Qgnr7Ipblduh4xnAi0IsIZgPPsQVoMACIAACEwXAQiCCv096AiBW+Ug5fH6gBUrVphRhbm5OZLP9u3bB3v3gGc6jGv3WJxPSjvGAnZopBYEWEMwRh0HU0EABEAABKaWAATBBHQ9i4J169bV2hJz51+m5NRa8nALm5R2DJfaYLW5ggBrCAbjidwgAAIgAAIg0DSBRgUBP3t0GFtTjUizfZA7+r4y6y7PV0d+mP2c/PGd1jIp7cjvsbam8AkCrCFoa2/BLhAAARAAARAgasqXNu8hmFRBgAsHBEAgnYAWBFhDkM4JMSAAAiAAAiDQFgKNCgK8qbhYN7djhKCYrUgFAnkEtCDAGoI8WogHARAAARAAgdETgCAYfR/AAhCYKAKuIMAagonqXjQGBEAABEBgAglAEFTo1Lrv6NddntskXnDMC4+xgcAwCPgEAdYQDIM86gABEAABEACBagQgCKpxa20uflEZP3JUHj/KexYc/GhSiILWdttEGaYFAdYQTFTXojEgAAIgAAITSgCCoELH1n1Hf9Dy+KVj/PIxfglZ1kvK+CVm2ECgaQJaEGANQdO0UT4IgAAIgAAIDE4AgmBwhqVLqPNNxSdOnKBVq1YZIbB48WLq9Xq0du1aWr9+ffxZunQpLVmyZLAXlRVqZfTGX/PW4v4M870OBYF+m29/mtGE9L+pOKUJtZrH70iw63Hebsy18RuOOZF5wVoaO08+j6XmnQx2hZ5Ugwe5ggBrCAZnihJAAARAAARAoEkCEAQV6A56Rz8vf168Nnn16tVGDCxfvpz279+vo+LjNWvWNCQGXEc0PO90fI4rxwUtFgQ+m2OEzRyIsy+lG6c/oE5vXkKIRZQ+DyP83FW2OH98wGV3utT19k2cqpYDnyDAGoJa0KIQEAABEAABEGiEAARBI1izC2WHf2HhaTp5MvwEQWDOFxaeouPHnjBz/rNLCGO3bt1qxMCyZcsy1wfwKEIzm98x7XY9TqxxfrvUbe0IwQgEgXHSeyTuPzv/3V6POvFdfH7Jms8uP/csQSDCQvbNXA9hqVoQYA1Bk6RRNgiAAAiAAAjUQwCCoALHMnfwfcVz/uPHj0afI8SC4NixI3To4KP04P3zhQXBypUrjSDYuXOnr5q+MB5FyLQ9ukPN9nR6Pdt5V3H8FuMbSO74813/IJzWYsLYgeW4Ls3GFohj6ziyTplhevtNw6Fv7Avj2TRR3XH9UYWq3Lx2hHU6dsV2h+EscJI2d0jOTV5VF3OIffmIhaS9gXxtEC5coRxrdu5xhy7bzWFuu0M7e7M96kRx9qiClM3V8EhBIkLCpvpsE5uSuuK2WW2Wfk7K0IIAawjiiwkHIAACIAACINBaAo0KgpmZmaE0vKlGNGU8O+VHjx4KHWnt3AUB3btnm3HaxXFP27NtHMdOfpGNRQMvOGYR4d9CR1OcPr6TnMz3jxxOuZU9242msTjhsSAInXUpK3FCdXp9HM6VN06sO42GjfWFWY3QZfFx4pgXb0fi+LLznwgFPYUnLDtxtu267Hn+TtqUNiTrCGapGznqs91oVMDKw+XJaIE+NoBCkSCOPueL2+CKACUODMPQkU/aJGDTwp265VpQtrqCAGsIhCn2IAACIAACINBOAk350ueeey4FeFOxv9PZkT98+HE6ePAxOnBgnxEGjzy8l/bet5v27NiSfRffXyRlTQvix43ytCIWBDzNyLv13TlWjp91RzhynI23r9KYQtW5Ks9yesWpTSszCrccVF8Y12ccX3HkI2dZ1Ru207HJEWBmwa4SMjYblddtH58bu0Q8RLXFC4WdvFltYJbKoZZpPbKPSs4RBCIWOLVdt10Om92JRnT8bTD1edqWhAtzdS2o9vkEAdYQhL2IvyAAAiAAAiDQRgIQBCPoFRYED9y/m+7ZNUe77r7LCIIdWzfTti2baO7Om0oLAn73AC8c9m280JhHEVgM8ALk1I0dOrnDbBIppzLNOXQcT9sRje5E8zSWuNwiZYYWGqdV3ennUCvMsknd9a6lHUJJ2esyCQ2ijr4TbzSKjE64ecMyrTZIGZ0ezfL6gXBYIhQa3Z6zfkCXp4+5kKxzjnMceHMeCRmLY2ij+Vs2PMrK7dOCAGsIFFMcggAIgAAIgEBLCUAQVOgYmcZTIavJwvm3bbmFNt98Ld224Wq6dcNV5rPpxivp9o3XlBIELAb4kaL8aFH9qFF+9Cg/gpSnbbEY4EeTZo0ihE6lOLPifMtd59CptO7am5ZkOaLJHfwkn06fVmZClZ3LJG8YHofxHXURGsZ5tW0V5zp0wO04t8x+h1ps0PZymO88YWaPGLhppcyQbWJDODUnmZ4l9bATr0cfdHn6WNJLG51zzSk2IawzZBQeJ/ZIorRwrltPo5L0yV4LAqwhSLjgCARAAARAAATaSgCCYAQ9U+d7CPhlY+zwp334ZWX80jJ+eVnupqbgZC/GlUXE4VqB/kXFUhM7lWlOrUxXUXevZepMfEc7yqvsSpzk0GE1dbuP01Tpi7UjdHJNWVHdoYOc53i7bUhxyhmHsilpQ8jJiBYRNxG6/ncG2LbEC6qNV2/HaeHC6fqd/UjwiWoyQifphzg4LdwIsCS9mXal2ucKAqwhkP8H7EEABEAABECgnQQgCCr0y6AjBG6Vg5TH6wNWrFhhRhXm5uZIPtu3bx/s3QNpU0Zc49t+PintaDtnZZ9PEGANgQKEQxAAARAAARBoGQEIgpZ1SBVzWBSsW7euStbUPOYOtHPXOjVxiyMmpR0tRtxnmhYEWEPQhwcBIAACIAACINA6AhAEFbpkkDv6vurqLs9XR36YmoKjF53mZ2xZiklpR8uwljBHCwKsISgBDklBAARAAARAYEQEIAhGBB7VgsCkEnAFAa8h4ClD7/2rG+isi9bTuz58Hb3jz9bR2z5wDZ15/lX0e+d+gd56zhV0+tmfoRe/7sO0b9++PjRNfVH1VYQAEAABEAABEJhCAk39zpr3EPCfYWxNNSLN9rrv6NddXprdCAeBYRCAIBgGZdQBAiAAAiAAAvURaMqXnmhBUB9+lAQCk0cAgmDy+hQtAgEQAAEQmGwCjQoCvKm42MXT9AgBLzjmhcfYQGAYBCAIhkEZdYAACIAACIBAfQQgCOpj2YqS+EVl/MhRefwo71lw8KNJIQpa0UUTbwQEwcR3MRoIAiAAAiAwYQQgCCp0aN139Actj186xi8f45eQpb2gjMP5JWbYQKBpAhAETRNG+SAAAiAAAiBQLwEIgnp5FiqtzjcVnzhxglatWmWEwOLFi6nX69HatWtp/fr18Wfp0qW0ZMmSwV5UVqhl2W/kLVoE0o03AQiC8e4/WA8CIAACIDB9BCAIKvT5oHf08/LnxWuTV69ebcTA8uXLaf/+/ToqPl6zZk1DYmCWukGHevNRVe5bged71JvlOCddbJl7UDSdmw/nbSIAQdCm3oAtIAACIAACIJBPAIIgn1HtKdjhX1h4mk6eDD9BEJjzhYWn6PixJ8yc/yKVbt261YiBZcuWZa4P4FGEZjbHgZ/tUuB9u7GTLtWYoulSC0BECwhAELSgE2ACCIAACIAACJQgAEFQApYkLXMHX/LoPec/fvxo9DlCLAiOHTtChw4+Sg/eP19YEKxcudIIgp07d+riU495FCHTdnOHPzD2dHo9z93/MC4IunSDuesv5wEFXR4KYIc+oE48ZMCmhGHcRvMx6Yhmu/68djpXIOhz+43EUbGpbUfE8AhAEAyPNWoCARAAARAAgToIQBDUQbFkGeyUHz16KHSQxVGO9vfu2WacdnHc0/ZcJcexk19kY9HAC4tZRPi30HEXx3q+16Egng6kHfFwnUDo9DvhpuDEUZeysqcM6TL0MReWcc6jEUkF/iYhdCQEIAhGgh2VggAIgAAIgEBlAo0KAryp2N8v7MgfPvw4HTz4GB04sM8Ig0ce3kt779tNe3Zsyb6L7y+SsqYF8eNGeVoRCwKeZuTdeHTAmu6jnHE1cpB9B1+VHOUJfXZVliRhhz4WQ7IOwU2XcR6Vb49GSOHYj5IABMEo6aNuEAABEAABEChPAIKgPLOBc7AgeOD+3XTPrjnadfddxjHesXUzbduyiebuvKm0IOB3D/DCYd/GC415FIHFAC9ATt1yBUGXzPpgqwDXYbciyYwyGEXgpDPOvJTHIwoVBEFUVTiSERAGC2z2ozyDIBglfdQNAiAAAiAAAuUJNCoI8KZif4ewINi25RbafPO1dNuGq+nWDVeZz6Ybr6TbN15TShCwGOBHivKjRfWjRvnRo/wI0pmZGSMG+NGkWaMIMtdfHOv+KUPu2gBum+Poz/aSJw5ROHXIO7VILz424iBNEIRliE1kRhUkbcKWbcVIQcJj1EcQBKPuAdQPAiAAAiAAAuUIQBCU41VL6jrfQ8AvG+O7/2kfflkZv7SMX16Wu6lpPNmLimURsVocHI8EuIuFw1rjRcQmXbLOIOh0qRuPELjlhesV4qlF3E5Z16Bs5UXO/aMXua1FgoYIQBA0BBbFggAIgAAIgEBDBCAIKoDlO/x1boOUx+sDVqxYYUYV5ubmSD7bt28f7N0D1rSeOluLsiadAATBpPcw2gcCIAACIDBpBCAIJqBHWRSsW7eu1paYO/rWIuNai0dhE0wAgmCCOxdNAwEQAAEQmEgCEAQVunWQO/q+6uouz1dHfpiaxmOe/oNpOPnMkMJHAILARwVhIAACIAACINBeAhAE7e0bWAYCY0kAgmAsuw1GgwAIgAAITDEBCIIKnV/3Hf26y6vQJGQBgdoIQBDUhhIFgQAIgAAIgMBQCEAQDAUzKgGB6SEAQTA9fY2WggAIgAAITAaBRgUB3lRc7CJpeoSAFxzzwmNsIDAMAhAEw6CMOkAABEAABECgPgIQBPWxbEVJ/KIyfuSoPH6U9yw4+NGkEAWt6KKJNwKCYOK7GA0EARAAARCYMAKNCgK8qbjY1TLoCAG/dIxfPsYvIUt7QRmH80vMsIFA0wQgCJomjPJBAARAAARAoF4CEAT18ixUWp1vKj5x4gStWrXKCIHFixdTr9ejtWvX0vr16+PP0qVLacmSJYO9qKxQy5w3Cw/5DcL87gTzIuTY1tnkzcYSxm845kTmxWsd6s1LhN578uno6Ni8q8Gu0JOq6SC2Vb0dWt7knFdtZvuzMrv1ucyJIAiy+CEOBEAABEAABNpHAIKgQp8Mekc/L39evDZ59erVRgwsX76c9u/fr6Pi4zVr1jQkBhzH2X278XyPerNshpMutsw9KJrOzRedi7Mv0caegDrK65/vdazzMKlbr3suBao9l93pUreTJipU2kYPbVu5fUGtL5Szy+/rS2buCD8IgkY7HIWDAAiAAAiAQO0EIAhqR5pfIDv8CwtP08mT4ScIAnO+sPAUHT/2hJnzn18K0datW40YWLZsWeb6AB5FaGZznEV2Dr3OqJMu1Zii6VIKME56j+SmPzvH3V6POvFdfH75ms+Bd+t1z/vrE2Eh+/4UwwpxbXXPB7XDLS/vHCMEgxJHfhAAARAAARAYNgEIggrEy9zB9xXP+Y8fPxp9jhALgmPHjtChg4/Sg/fPFxYEK1euNIJg586dvmr6wngUIdP26I4629Pp9ezpNiqO7wjfYO76q6kqxulmZ9G+Ix/eUXbTEZnpNjLVReXlus0nDtMOvHZG7Tcrhz6/dvjlmPPIW5fd4w5dtju02VvvbI86kT16lIFIyqZw6lGfCPLZxt2REu6wNYMq3rS+/JoJ1+GcW2Xr6T06XXTc47v9If+wvRzu9p3OF00R0+2f72HKUN9/HgJAAARAAARAoN0EIAhG0D/slB89eih2vsQJ4/29e7YZp10c97Q9m81x7OQX2Vg08MJiFhH+LXT+Qsea/dwOBfF89H4nMHEYtcPOJSdOq5TV56RaBuiy9TEnyjh3pwdFZSbrCGapGzmqs93IRiuPLlsfS71BMtrhTothJzt2grm9mkHYfltAcJlp4U7ds91wSpNla9y4cP1DdBru7Pym32LbOE6JACMOxFadL0xn1lZwoVZ7dToT6REJYlBYDqYMCQ/sQQAEQAAEQGA8CEAQVOgncdIrZDVZOP/hw4/TwYOP0YED+4wweOThvbT3vt20Z8eW7Lv4KZVmTQvix43ytCIWBDzNyLtZTi6nUI6gc5fZCBjvHXxVcpQnFAWqLElinE65++xzUh0bTD5VTlR+n+MtjrTszU38cN2APb1HlaXb6tbjObfLicSTqB9jl4xImMzhn8xw4RDtuSxf+3xhxnadX9XtqdMSTGmCz+KhOXFT1LlbfnQOQaD6HYcgAAIgAAIgMAYEIAhG0EksCB64fzfds2uOdt19lxEEO7Zupm1bNtHcnTeVFgT87gFeOOzbeKExjyKwGOAFyKkbO3PxnWVOleH4xYWoNHFYcmDuVvuEg+VI6jvsbnl55zKS4dwF7/RoltcPhHNvQue623Pu5Ouy9bHTdtMcHc/H2gGX48gRt9qWsAgdfOWsS1Ra+ijeMNR3+SOBw6IsbJ+2TQqNM1Mnni4VhtUqCJTYMqVHbYEgcPoBpyAAAiAAAiDQcgIQBBU6qI4Rgm1bbqHNN19Lt224mm7dcJX5bLrxSrp94zWlBAGLAX6kKD9aVD9qlB89yo8gnZmZMWKAH02aNYoQCgBxMsXR1nfu3bUBDM5xRmd76jGeeoqMm04tPjZOpK5Hjrn8sIzYsTejCjo+7Dz7jn2YJ5nuJHay464dcm2TPpb0uh4VzzZYwsm1U7c7tC/8mxbOZfvYJnnt9kWlxU9LUrYlWaKjsOyYnyU+dD59zFn1uT5249xzThtgDUFEHzsQAAEQAAEQGBcCjQoCdkaHsTXViKZsr/M9BPyyMb77n/bhl5XxS8v45WW5m3G4wzve2YuKg3gue7w42HidoUMYr4mIPVG1iNiEidPO8/TtR3fa5bFvmix0DbidMs1Fh1uOfiRmHKfdlKvssZ1e1750J5jL6ZumJHft4/JtDnGwcbRlRCERXzI9yOLma58vzHLePT1sRIDUmSJy+sqw22/3iR3HNZpRDOGNRcWeTkAQCIAACIAACLSbQFO+9LnnnksB3lRcrPMHGXHg9QErVqwwowpzc3Mkn+3btw/27gHrbnKxdiAVCDABTBnCdQACIAACIAAC40UAgmC8+strLYuCdevWeeOqBpq7wnLXt2ohyDeVBCAIprLb0WgQAAEQAIExJgBBUKHzBrmj76uu7vJ8deSHqWk8ZtGsnm+fnxspQEAIQBAICexBAARAAARAYDwIQBCMRz/BShAYGwIQBGPTVTAUBEAABEAABAwBCIIKF0Ldd/TrLq9Ck5AFBGojAEFQG0oUBAIgAAIgAAJDIQBBMBTMqAQEpocABMH09DVaCgIgAAIgMBkEIAgq9GPdd/TrLs9tEi845oXH2EBgGAQgCIZBGXWAAAiAAAiAQH0EIAjqY9mKkvhFZfzIUXn8KO9ZcPCjSSEKWtFFE28EBMHEdzEaCAIgAAIgMGEEGhUE/DKCYWxNNSLN9rrv6A9aHr90jF8+xi8hS3tBGYfzS8ywgUDTBCAImiaM8kEABEAABECgXgJN+dLmxWSTKggG7YI631R84sQJWrVqlRECixcvpl6vR2vXrqX169fHn6VLl9KSJUtyXlSm3kBrXkqm32qb12L7zbyBvE04L1vh+EFs81US2Zu8QthKZN68W3sbrCom+oQFwSAfH5ymvqh8dSEMBEAABEAABKaNQFO/s3hTccaVlDcikBevi169erURA8uXL6f9+/frqPh4zZo1OWKAkyqnO86ZduDTpi96AAAgAElEQVSmtc+NQ13rS83s8tOsKh4eltfp+EQPxwVUv6gpbt24pzznnHPommuuqfzxtb+pLypfXQgDARAAARAAgWkj0NTv7EQLgkEvEnb4FxaeppMnw08QBOZ8YeEpOn7sCTPnv0gdW7duNWJg2bJlmesDeBQhfyvjdLtp887za89O4ZafnTo/Niyv2+1QpzdvJ5/tUtDtUhcjBDaXEmciCEpkiZNyXt/W1BeVry6EgQAIgAAIgMC0EWjqd3aiBUGZO/i+C4rzHz9+NPocIRYEx44doUMHH6UH758vLAhWrlxpBMHOnTt91fSF8ShCuu3a6dbH9huMz7qB4/gOevQx0250eq7WOTdTkCSPvAE5StPrxmVZzrnK0+n1lIOuyx60DM4v9rDd3FYeNdB1cHCPOtLeOL3NJZx95Asjmu1K2wMK9DQlVa7dxjJ19nXzyAMgCEbeBTAABEAABEAABEoRgCAohauexOyUHz16KHaEY+c6COjePduM0y6Oe9qeLeE4dvKLbCwaeGExiwj/pp1gdWzumM86WVS8ibHP7SlDdhzNdqO78hyuHGSuJ3a2wzjxne05/bq8wctgZ13qMY6/merk1qGmFon9Pi6+MIucW25Sd3obWV9FzHLLtyob2QkEwcjQo2IQAAEQAAEQqEQAgqACNnHSK2Q1WTj/4cOP08GDj9GBA/uMMHjk4b20977dtGfHloy7+Ok1Zk0L4seN8rQiFgQ8zci/uc5q5ARHd7Gtu/fuCIA5V3fBY8fevdNdcFSB67TWIKTY5rVD2V2kDFVXIg5UfeoufizcWEH4uPjCGLYRO8KngH1l6vR35khDIQhGih+VgwAIgAAIgEBpAhAEpZENnoEFwQP376Z7ds3RrrvvMoJgx9bNtG3LJpq786bSgoDfPcALh30bLzTmUQQWA7wAOX1TTnCfo83+b8fYGd5N12m5RPdc1WKcWz0tR+LcPOqc8xRx5vvqrVJGNE1oVtfplKMFjpgf7W0uYaAVZrVfpiRFQimtjVYep0KTVfdFf/yoQyAIRt0DqB8EQAAEQAAEyhGAICjHy6SuY4Rg25ZbaPPN19JtG66mWzdcZT6bbrySbt94TSlBwGKAHynKjxbVjxrlR4/yI0hnZmaMGOBHk2aNIthOvXKIFR92dMORAjfePVeZjNMe9C/ezXLmozwylSd0sGXajq5LH3Od+pyPi0/J4bv/yShIfzlJnG5beJxwSeLiMB4dEMffOPq6HVn2aXuScuUoLl8CWrSHIGhRZ8AUEAABEAABEChAAIKgAKS6k9T5HgJ+2Rjf/U/78MvK+KVl/PKy7M11giPH1ZruktzpjxfKGq9d5/XUYhxhmTIj6wbcPM65qtdecKvT6WOu1zkvVAbn4zv3Sdv6yvHZr8qO1z74wkzZUds7XerqR52q9HYbPVOtmLNKH9fpwT3qIAiCUfcA6gcBEAABEACBcgQaFQST+mKyQUcI3C4apDxeH7BixQozqjA3N0fy2b59e4F3D7iWTPB5zjSckbe87faVAARBUAIWkoIACIAACIBACwhAELSgEwY1gUXBunXrBi1movObEQ2ZutPClrbdvjLIIAjK0EJaEAABEAABEBg9gUYFwXnnnTeUFjbViDTjB7mj7yuz7vJ8dUxfmP1OgPZNsWm7fdWvGAiC6uyQEwRAAARAAARGQaApX3qiX0w2io5CnSAwLgQgCMalp2AnCIAACIAACIQEIAgqXAl139Gvu7wKTUIWEKiNAARBbShREAiAAAiAAAgMhQAEwVAwoxIQmB4CEATT09doKQiAAAiAwGQQgCCo0I9139Gvuzy3SbzgmBceYwOBYRCAIBgGZdQBAiAAAiAAAvURgCCoj2UrSuIXlfEjR+Xxo7xnwcGPJoUoaEUXTbwREAQT38VoIAiAAAiAwIQRgCCo0KF139EftDx+6Ri/fIxfQpb2gjIO55eYYQOBpglAEDRNGOWDAAiAAAiAQL0EIAjq5VmotDrfVHzixAlatWqVEQKLFy+mXq9Ha9eupfXr18efpUuX0pIlS3JeVKbe8mtekhW9qbhYi6gbqDcRB2XyuhUoO9wo8yZiXU9And58X6o4wGpHVrlxDudA5+Fjecuyk8y8WLhDwUDt7i9zXEMgCMa152A3CIAACIDAtBJoVBDgTcX+yypvRCAvXpe6evVqIwaWL19O+/fv11Hx8Zo1a3LEACfVzm+cNeXATWufz/c6FFR+CZhdlm1AVpydsv+sSl6dJzzudHxih+NYqPji+i2Z9BAIgknvYbQPBEAABEBg0ghAEIygR9nhX1h4mk6eDD9BEJjzhYWn6PixJ8yc/yJmbd261YiBZcuWZa4P4FGE/E07v3mp3bR553nl6Xi3rKJxOp3vOKtcX3oO03nC42630z8qMduloNulLgSBAQlBkHY9IRwEQAAEQAAE2kmgUUGANxX7O50FwfHjR6PPEWJBcOzYETp08FF68P75woJg5cqVRhDs3LnTX5ETyqMI6aMP/c5vOBvHfqPuWTdwOjVtpzvrOM5caVpZbpxdtilK8s72qBPVk0wL0uXajZvtuja5dTl5zXQiydMlboXZVHin11NOvuTnvUpP3AYeGZD4/nKStyT72usLI/K3x8xNUly0fXZcdp2RjQ3tIAgaAotiQQAEQAAEQKAhAhAEDYHNKpad8qNHDxkhwGJAf+7ds8047eK4p+25fI5jJ7/IxqKBFxaziPBv2qFVx+bud+wuR1lVvAmxz+0pQ3acJRZSyw6SKUecJnbAuSybVygidIt0fUWOWb90o7v+YflSpmlHfNc/KYuddUlDLCDM9Kgk3mojmybl+9rrC9PNEYFklkoUsy/skqhNueVbldVyAkFQC0YUAgIgAAIgAAJDIwBBUAG1OOkVsposnP/w4cfp4MHH6MCBfUYQPPLwXtp7327as2NLxl389BqzpgXx40Z5WhELAp5m5N9SHNrojnlyl55z67Ryrh11fQfdlzaaa1+4bJmb75alWmKEg9jgS6/yqlGAWIyxhx8791KuyqPbrNIl4kClzSo/cBZCR2ltvqGIiG0TUaLqDS2sWKc0r6E9BEFDYFEsCIAACIAACDREAIKgIbBZxbIgeOD+3XTPrjnadfddRhDs2LqZtm3ZRHN33lRaEPC7B3jhsG/jhcY8isBigBcgp2/KudTOb5QhvFsud8Z1Wk7gnuta3Dj3nP1wfkJPkbL785qajFMtIkSm8Lh2qbxWemVrlsNttTGqg6c1xYunC5QfVWW3Nwy0wiz7VHuy7LPyqDZl1Nmfqp4QCIJ6OKIUEAABEAABEBgWAQiCCqTrGCHYtuUW2nzztXTbhqvp1g1Xmc+mG6+k2zdeU0oQsBjgR4ryo0X1o0b50aP8CNKZmRkjBvjRpFmjCLZTr5xbxYed1vBOthvvnqtMZo69OPty51vu4CfpipWdUg+PDohjbhxjKV+nd4+dO/XGFE6T2Bo66b6ypB26jCLl+9rrCctsT5Z92p6kXDlKGEtIM3sIgma4olQQAAEQAAEQaIoABEFTZDPKrfM9BPyyMb77n/bhl5XxS8v45WXZm+vQRo6wNRVH7sKrRa9mMr3O66lFl6GfxqPDrXUC4oRzWbpsfazrUQtzO13qxo8G1en1sbsAV71fQNnkX1Qs9XKdCQ/bzpTyVdnxughfWCSizJQhqz2JEOE4274SdUoTGtpDEDQEFsWCAAiAAAiAQEMEIAgqgB10hMCtcpDyeH3AihUrzKjC3NwcyWf79u0F3j3gWoLzsSKQM01oVG2BIBgVedQLAiAAAiAAAtUIQBBU49aqXCwK1q1b1yqbYEzzBMyjSWWqVPPVFa4BgqAwKiQEARAAARAAgVYQgCCo0A2D3NH3VVd3eb46EDYJBNTUKPP4VT1lqT3tgyBoT1/AEhAAARAAARAoQqBRQcALWoexNdWIYdiOOkBg0ghAEExaj6I9IAACIAACk06gKV/63HPPpQBvKi52+WCEoBgnpBoPAhAE49FPsBIEQAAEQAAEhAAEgZDAHgRAoBYCEAS1YEQhIAACIAACIDA0AhAEFVDXfUe/7vLcJvGCY154jA0EhkEAgmAYlFEHCIAACIAACNRHAIKgPpatKIlfVMaPHJXHj/KeBQc/mhSioBVdNPFGQBBMfBejgSAAAiAAAhNGAIKgQofWfUd/0PL4pWP88jF+CVnaC8o4nF9ihg0EmiYAQdA0YZQPAiAAAiAAAvUSgCCol2eh0up8U/GJEydo1apVRggsXryYer0erV27ltavXx9/li5dSkuWLBnBi8qctwPHdDhcvR04Dg8P5nsdCgL9tmInQQtOzTsAzFua84yJ2moeExpQ+Ibh+bxMNcWn8a9afLHyIAiq8kU+EAABEAABEBgNAQiCCtwHvaOflz8vXpu8evVqIwaWL19O+/fv11Hx8Zo1a0YgBrj6NAcyDO90fE4/x7Hj7IuLmzTaA35DcKdLXa/9rmkug6h9hcSEW1bZc7fusvnd9MXKgyBwueEcBEAABEAABNpNAIJgBP3DDv/CwtN08mT44bvGfL6w8BQdP/aEmfNfxKytW7caMbBs2bLM9QE8ijCaLc2BDMO73Q51es7d8tkuBd0udVssCHgEg+2WfTZbDwMWFMEwXirmqTvb2JzYYuVBEORgRDQIgAAIgAAItIxAo4KAX0YwjK2pRqTZXuYOvq8Mzn/8+NHoc8RMIzl27AgdOvgoPXj/fGFBsHLlSiMIdu7c6aumL4xHEdJtj5y9WXZWw6ktfBM7nL7TP9XFTJmRaTDx3e6wDHb0g6BLN1gjBBwn04TEseS9doz5Tbw8MiDxUROMAx3awOXOmmD7rb2hCb4wIr+txI2L29rp9WwRouKSOrlisTHK3+lRIml89TttUbbH2Ky6ApJwtluO+0ZbOI+JjMrvdc11ZE9JcupOqYdNqpMRBIHpZPwBARAAARAAgbEh0JQvbV5MNqmCYNDeZaf86NFDsQPHTpx87t2zzTjt4rin7dkGjmMnv8jGooEXFrOI8G/sPAYUiIPLd+qDILmDb87FGdclaKczLCO56y9xoaPsc24tp5cdVlO/5ON69LHxXEObzEhCKA1ia3xhcaRbVmir2GSvW0ipk4uIbTQnkYCJKvHW75Rlkmoeth2hSImmS+nyZrvEU6yEbTI6EeYPpCGcJxZNuu6MeiLzw116nmKMZgmCwAKKExAAARAAARBoPYFGBQHeVOzvf3bkDx9+nA4efIwOHNhnHO9HHt5Le+/bTXt2bMm4i+8vj0OzpgXx40Z5WhELAp5m5N+0I8gpcs6N4ylCRub7+/N0OkpYmMpVOuVgJ+LAiVeCyQgndn6ju93iIJtifWGmKcnd83htgqrX5NXtjcoRkRbXafRA4pRzPuMkizPurV+1JayIcyVCwuSxhVbMQdk42+1Qj0dvjGBS+bXdpnxdnzrOqofz+fpT1R+a7pYn/R/to36BIIg7GgcgAAIgAAIgMBYEIAhG0E0sCB64fzfds2uOdt19lxEEO7Zupm1bNtHcnTeVFgT87gFeOOzbeKExjyKwGOAFyOmbcvZMooxzy7nMc04Dc2c7voPdV3aUP3Z2OYGq26qr3/rwrrWeWhM56UEUZuVXtuY6u7aTHtbMdjlOsDm309o2qbaI+domfRzFx4IgFg6z1I2FQJdmLdvd8vW5Os6qx4obkNF8DyME0s/YgwAIgAAIgMCYEIAgqNBRMo2nQlaThfNv23ILbb75Wrptw9V064arzGfTjVfS7RuvKSUIWAzwI0X50aL6UaP86FF+BOnMzIwRA/xo0qxRBMsJN1YqZ9I957vJMrXIOJPZIwS8bpid3ORuvlN2dHfaH89pdd5+6uyAJ3nD+Dgs09ZESIROvG6Hp05dVmwGO9BJORIc16/FjYkM2yODCiF3ld9yzkNx404VYnGXtNdhadWn45x6dT26XX39mdhWiBFhypBcA9iDAAiAAAiAwLgQgCAYQU/V+R4CftkYO4hpH35ZGb+0jF9elr1p55FTZp2HTrCZSmM9frNAnk6PdveVzeXpu+xOOcZJVXfm2ZuOREQ4rSfK6wszd9mjvJat9jSZ7EXF4WJoW9QkNI2jnGaTaauy3ff0JKt9Ikqi8i0HPVrDYJXhsLLYOnGp9aT1Z3lGbDWmDCXXBo5AAARAAARAYBwIQBBU6KVBRwjcKgcpj9cHrFixwowqzM3NkXy2b98+oncPuK0bk3PjLGtRMiZ2t9BMCIIWdgpMAgEQAAEQAIEMAhAEGXDGJYpFwbp168bF3FbayXf/42lQrbRwfIyCIBifvoKlIAACIAACIMAEIAgqXAeD3NH3VVd3eb46EOYSUNNkPAuD3dQ4L04AgqA4K6QEARAAARAAgTYQgCBoQy/ABhCYIAIQBBPUmWgKCIAACIDAVBBoVBBM6ovJ6r6jX3d5U3HlopGtJQBB0NqugWEgAAIgAAIg4CUAQeDFgkAQAIGqBCAIqpJDPhAAARAAARAYDYFGBQHeVFysU5seIeAFx7zwGBsIDIMABMEwKKMOEAABEAABEKiPAARBfSxbURK/qIwfOSqPH+U9Cw5+NClEQSu6aOKNgCCY+C5GA0EABEAABCaMAARBhQ6t+47+oOXxS8f45WP8ErK0F5RxOL/EDBsINE0AgqBpwigfBEAABEAABOolAEFQL89CpdX5puITJ07QqlWrjBBYvHgx9Xo9Wrt2La1fvz7+LF26lJYsWVLTi8r47bc5b94tRIETOW/StfK59QTU6c1bKawT642+WeVaudSJzhPVzW8f9mzmzcTW24I9iaY4CIJgijsfTQcBEAABEBhLAhAEFbpt0Dv6efnz4rXJq1evNmJg+fLltH//fh0VH69Zs6YmMcBFaseZyDjHnR5luOqxHf0Hdll2fFacnbL/rEpenSc87nQ61K9BOI4FkS+u35JpDIEgmMZeR5tBAARAAATGmQAEwQh6jx3+hYWn6eTJ8BMEgTlfWHiKjh97wsz5L2LW1q1bjRhYtmxZ5voAHkWob9OOM5fqnpepKStvVlxeHVXy6jzhcbfb6R+VmO1S0O1SF4IgtRMgCFLRIAIEQAAEQAAEWkkAgqBCt5S5g+8rnvMfP340+hwhFgTHjh2hQwcfpQfvny8sCFauXGkEwc6dO33V9IXxKEK67YkTHARdMpNlzDQcmR4UhfUJgH5HOrmrruPsNwOHs3Gi+NkedaJpSMm0IJ3XbspsV2wKKIin9ej0+ph4GCMuP24bF6nCO72ecvIlP++l3SYD9cyogcRHdqlykvJ97fWFEfnbk2WfHZddp81uGGcQBMOgjDpAAARAAARAoD4CEAT1sSxcEjvlR48eMkKAxYD+3Ltnm3HaxXFP23NlHMdOfpGNRQMvLGYR4d/YydXz9B2nd7Yb3S23w+0pQ3acNXpg7qy7c/LDOgOZcsRpYgc8ilN8Yt8/boCur8gxD2jodgQkZdrrApKy2FmXNEZAGFuTeKuNbJeU72uvLyxui8nsiJKk7jT7TPasOq3yh3MCQTAczqgFBEAABEAABOoi0KggwJuK/d3Ejvzh/9Xe2cVKclz3fR71wAc9CsiL3rR2DCNAnuYhD/lAYjlB6AR0EASI44fs7IoMRQWCJTARIIWhaFCBJxABG4JlOUiQkMyClGjauqRXDj+FtRQvstgls9y9ZCRSK4pckUvc/SalpSs+1V3dp2qqZ3pmunr643eBvtPd9XXOr3q6z7+6evrKe+bg4F1z6dJbVhD89OIFc+H18+bVsyeXjOLH65O9y6YFyc+NyrQiEQQyzSj+p4PccAQ6Fy02MpZ8WsToEfSgDn03IR9FL+8AiBVL8i+kKautcHA2uLn8ui617o3eKz9kvxMitmpVRret8pXiQOVdVr8nsEqmPoNMRJSiMPdHtZt5vmGbCltbqwiCtkjTDgQgAAEIQKAZAgiCZjiuVYsIgh+/cd68du6UOffS960gOHv6hDlz8jlz6nvfWVsQyLsH5MHh2J88aCx3EUQMyAPI1X8q4JRMNtDVwb4rGeRzu+1nmBZu5w8hT9zId5iut/W6asSzS6bg1BEEET+WBdxaEJi8DZnWVAgIZZtnj7IzX81G9p2/2U5vn1de+bPMPq9MvTYXc6XbgyBIx5aaIQABCEAAAikIJBUEvKk43mUiCM6cfNaceOab5oWnHzXPP/2IXZ576mHz4vFjawkCEQPyk6Ly06L6p0blp0flJ0iPHj1qxYD8NOmyuwjx0Xo9hcj5ooJht6v4zObIF1Ns7Ei+C9iLTPaXibJR8rAuva3Xy7IyJaeYYmQDY1e/zh+uV/lRBuqrpuTICH45sl+n/tJmqbssm+0v9i31Z5l92p6yLbdW1O92tPiJIGgRNk1BAAIQgAAEGiCAIGgA4rpVNPkeAnnZmIz+Vy3ysjJ5aZm8vGz5nw5y85w24HZTc9wDvJF8umI9nUf/Go/e7z0n4AJ6qUTXrdd1A5nosFNspjMzW3WHQIpG/fCn6sQfKnbtSpv6LkNgW6z+mL+xffYORM7Y82eZfRU+Ret3PrT3iSBojzUtQQACEIAABJoggCDYgKKM8Df5t0198nzAAw88YO8qnDp1yrjl5ZdfbvDdA016S10bEbCiQ4uSjWpppRCCoBXMNAIBCEAAAhBojACCoDGUu6tIRMHjjz++OwNoOTkB+9OkxTMMyZvbqgEEwVb4KAwBCEAAAhBonQCCYAPk24zox5prur5YG+zrGwE1Ncr+qlM/7g4IZQRB34417IUABCAAgbETQBCM/QjAfwg0TABB0DBQqoMABCAAAQgkJoAg2ABw0yP6Tde3gUsUgUBjBBAEjaGkIghAAAIQgEArBBAErWCmEQiMhwCCYDx9jacQgAAEIDAMAgiCDfqx6RH9pusLXZIHjuXBY/4g0AYBBEEblGkDAhCAAAQg0ByBpIJAXorVxl8qJ9qwvek25EVl8pOj7udH5VMEh/w0KaKgadrUFyOAIIhRYR8EIAABCECguwRSxdL33HOPmfCm4nodv+0dAnnpmLx8TF5CVvWCMtkvLzHjDwKpCSAIUhOmfghAAAIQgECzBBAEzfKsVVuTbyr+4IMPzEMPPWSFwJEjR8x8PjePPfaYefLJJ4vl3nvvNZ/73OfaeVGZfYGWfvtwLSQrMsmbgd2bkhez7s+nZjJpus3FdthTjwCCoB4nckEAAhCAAAS6QgBBsEFPbDuiv6r8qnRt8te+9jUrBu6//37z9ttv66Ri/Rvf+EaDYkCC87aD76zN6TTWbi4WWrepwMtKQABBEABhEwIQgAAEINBxAgiCHXSQBPy3bv3cfPhhtkwmE7t969bPzM0bV+2c/zpmnT592oqBL37xi0ufD5C7CM397U4QzGZTM53v+67szcxkNtuBSPHNYKskgCAoWbAGAQhAAAIQ6AMBBMEGvbTOCH6seil/8+b1fLlmRBDcuHHNXD54x7z5xn5tQfDVr37VCoJXXnkl1szCPrmLUG17FuhL0D2Z5G/FtdN/JtY+2fdt40bj832zPWPsvqlx5bI8aiR/oY7sDby2qLNQgvrp3NhQP8gvLbg25vvSvn5jr9QlbQUiJVqH/+bfrP3YPmP2Zs7nYJqSqnc6n/siRKUV/Jx/I/tEEIysw3EXAhCAAAR6TwBBsIMulKD8+vXLeaCtgs/JxPzw1TM2aHeBe9WnmC1pEuTX+RPRIA8Wi4iI/2XBfjkCHwTZe7N8dD7Yn4uEeLkgr6vDjupnob7YIgF4FqBX5M9Fh9wcKPMaYyQIt0JCl9PrtvLM7qBNyyC2z4Oj65J1Z6c0rZ9b0PlUm15d49lAEIynr/EUAhCAAASGQQBBsEE/uiB9g6K2iJS/cuU9c3Dwrrl06S0rDH568YK58Pp58+rZk0tG8atbXDYtSH5uVKYViSCQaUbxvyCo9Ua8F+8IlDN3gnIqeLcBuzwMrJfiroIb6d8zs+jdgYo2CxGgxYGyocrufH8pXHJBMZnEpyEVNud3O1S7Gb8abcZBD34vgmDwXYyDEIAABCAwMAIIgh10qAiCH79x3rx27pQ599L3bcB89vQJc+bkc+bU976ztiCQdw/Ig8OxP3nQWO4iiBiQB5Cr/1SAK5lsAO2Cdl0qyKcFgM2m0ivryEbYJTiXkfYiSK/Mr+o0+TShPXd3QBpV6ZV1ZD5kI/vlSL/s9fZ55d2UJH03IqtnnTZdibF8IgjG0tP4CQEIQAACQyGQVBDIywja+EvlRJXtTdwhOHPyWXPimW+aF55+1Dz/9CN2ee6ph82Lx4+tJQhEDMhPispPi+qfGpWfHpWfIJWXw4kYkJ8mXXYXwQtwreMSZEdGz3XwXeRTzwx46VV1uAB7ZmZTLTqq8quAX9qUqT6ebTq9qo6yNz0Rku8u9knd3h0L51tWr3v2IRMRflohbMqmRrmGIBhlt+M0BCAAAQj0mECqWNq+mGyogmDb/m7yPQTysjEJ+KsWeVmZvLRMXl62/E8H1XlOO1qupvzk0XDx0G0x/ccFxlIuqKeiDmNH+oOHdqV4NH9Qpy0bCgllQ6yOXERk05fysrF9zi6ZMjQVwaLqVfmXP1Qc8Ws5/EGlIggG1Z04AwEIQAACIyCQVBDwpuJ6R9A2dxzk+YAHHnjA3lU4deqUccvLL7/c4LsH6vkxqlxWdGhRMirvlzqLIFiKh0QIQAACEIBA5wggCDrXJesbJKLg8ccfX78gJTYmYO+SuKlFG9cyzIIIgmH2K15BAAIQgMBwCSAINujbbUb0Y801XV+sDfZtS8B/Z8HY3zWwjCaCYBkd0iAAAQhAAALdI4Ag6F6fYBEEek0AQdDr7sN4CEAAAhAYIQEEwQad3vSIftP1beASRSDQGAEEQWMoqQgCEIAABCDQCgEEQSuYaQQC4yGAIBhPX+MpBCAAAQgMgwCCYIN+bHpEv+n6QpfkgWN58Jg/CLRBAEHQBmXagAAEIAABCDRHAEHQHNdrNGgAACAASURBVMtO1CQvKpOfHHU/PyqfIjjkp0kRBZ3oosEbgSAYfBfjIAQgAAEIDIxAUkEw1BeTNT2iv2198tIxefmYvISs6gVlsl9eYsYfBFITQBCkJkz9EIAABCAAgWYJIAia5VmrtibfVPzBBx+Yhx56yAqBI0eOmPl8bh577DHz5JNPFsu9995rPve5zzX8orLw7cG1XF/MZF/wpd4G7OWQNqrf+rs/n5rJpKqsVxEbLRJAELQIm6YgAAEIQAACDRBIKgh4U3G8h1bdEViVrmv92te+ZsXA/fffb95++22dVKx/4xvfaFgMSNUNCYLCylidWRvTaSzoz8UCgsAj2IUNBEEXegEbIAABCEAAAvUJIAjqs2ospwT8t2793Hz4YbZMJhO7fevWz8zNG1ftnP86jZ0+fdqKgS9+8YtLnw+QuwjN/7UnCGazqZnO930X9mZmMpuZGYLA59KBLQRBBzoBEyAAAQhAAAJrEEAQrAHLZV1nBN+V0Z9S/ubN6/lyzYgguHHjmrl88I5584392oLgq1/9qhUEr7zyiq6+cl3uIlTb7r+Jd7Yn1YRBv97O1/fmZirTeiYTFbQvpkl92RSfeN7fOS9lsjSpa2INcO3J58xYk6x3YqvcNXDpuct2+pGrw+WP+RXbZ8zezJV17S/WO53PfRESbTMvN9IPBMFIOx63IQABCECgtwQQBDvoOgnKr1+/bINoG/yqQPiHr56xQbsL3Ks+xWxJkyC/zp+IBnmwWERE9M+OuJchd5YnCLg9gSBpEzOZzo0du/eeBQjSpG4tGOy2C9h1G3pdLCi3JVjPRIoRZWGmtt0yXee1tu/NMoES8yu2z4MS1lu27T+3oPOJuXmbXl3j20AQjK/P8RgCEIAABPpNAEGwQf+5IH2DoraIlL9y5T1zcPCuuXTpLRss//TiBXPh9fPm1bMnl4ziV7e4bFqQ/NyoTCsSQSDTjKJ/+Ui3PzUnCHhVgL4QgNt42AXOy8pJ6zq9aj3IV4iAbCR/4Q5Gbr8nsLLbEvYOhudX1NcsoC/L588tqHYzbsreqjajgMezE0Ewnr7GUwhAAAIQGAYBBMEO+lEEwY/fOG9eO3fKnHvp+1YQnD19wpw5+Zw59b3vrC0I5N0D8uBw7E8eNJa7CCIG5AHkVX9uWs9CwG0LqmDYC+olMZuGs7qc5K2qR+8P8+XThGSKkrsroeuxwbm762CN9f75fmVJ3j6vfN6W3PpYKQiq2/QMGNEGgmBEnY2rEIAABCAwCAIIgg26sYk7BGdOPmtOPPNN88LTj5rnn37ELs899bB58fixtQSBiAH5SVH5aVH9U6Py06PyE6RHjx61YkB+mnTZXQSNQQLlbERdB/luBN394o8E7+q5AS+gXhbYS0s6vWo9zOfaV20u1KPTtEfZeulXmVbsk2lETmhYX3w/M6HjnoPw07y7D2XVo11DEIy263EcAhCAAAR6SgBBsIOOa/I9BPKyMRn9r1rkZWXy0jJ5ednSPzuv3z1Uq0a99X7vV32yQF5+AchNs3FBsx/wS6s66A+3/bTiwV5bmZ+W3YVQtoX12kDe+ZA/GKztdw8mx/bldzisL9OZmemfOlX5lz9UHDyMvBT4cBMRBMPtWzyDAAQgAIFhEkgqCHhTcfqDRp4PeOCBB+xdhVOnThm3vPzyywnePZDen8634N0J6by1OzEQQbAT7DQKAQhAAAIQ2JgAgmBjdN0pKKLg8ccf745BA7bE3sFwU4sG7Oc2riEItqFHWQhAAAIQgED7BJIKAt5U3H6H0mLTBLLnKNy0qImbdtR0MwOqD0EwoM7EFQhAAAIQGAUBBMEouhknIdAeAQRBe6xpCQIQgAAEINAEAQTBBhS3/ZWhDZqkCAR6QwBB0JuuwlAIQAACEICAJYAg4ECAAAQaJYAgaBQnlUEAAhCAAASSE0AQbIB40zsEn/rUp8yRI0cWltdee82cOXNmYb/klTL8QaBPBBAEfeotbIUABCAAAQgYgyBo8SiIiQHZd/78eftzoVXpLZpIUxDYmgCCYGuEVAABCEAAAhBolQCCYAPcm94hqAr4EQQbdAJFOksAQdDZrsEwCEAAAhCAQJQAgiCKxd/Z1JuFmxQE8nv45ZuBxd7wrb6ya2YmfibfsViZIEexqd7W29hPb9qXfE3NfL9oZfOVte2L8Nqk9U182KTMJrbtqAyCYEfgaRYCEIAABCCwIQEEQQ1wq+4IrEp3TTQpCBaCfRtkTsxURdf786m37ewoP2sGxbbumdlzBffnZl5suJ07/NzIvpq+79CtvjaNIOhrz2E3BCAAAQiMlUBSQXD06NFWuKZywhkvAf+tWz83H35YLrJ969bPzM0bV81OBIEEweqNuRL8z+ZzMy3uCMgLtVaNvtcMimX0XbXluHTmcyP7avreGSf7YwiCoD99haUQgAAEIAABIZAqlr7nnnvMZChvKpaA/+bN6/lyzdy8ec3cuHHNXD54x7z5xn5tQSC/JiTPC4TL+++/b65evWofLD516pT3Kb8+FP/TAb9blyDXjeTrdWNMfgche+OuzjM18725mU4mRtL0HYayXamrIm1JvbPZ1Ewm/8zMpsH0pjyAP78wZcl/K3CpbUr74tOVquyT/VoU6e18Per7YprYIqLLvbG45KTrjNkf26fLhH2jWeX55rNIu2XvdG0NQdC1HsEeCEAAAhCAwHICCILlfGyqCILr1y8XQZkLCuXzh6+esYLA3SWo+pSKJLgPA37ZFjGwviCQRwRc8LhnZvkI/t4sD4Al6C4i6iAA3Zvlgb/sn5Sj/za41wG0hlMGtkW1YUAf1FsEzZ4tgd1FwJ7VX5Qpmq6yvciQr9Swz7N3me9BmtivBZHdDkSVPAcR+GkNi+2L2FEw9fogt8Mleu2G/ndnG0HQnb7AEghAAAIQgEAdAgiCGpQkyL9y5T1zcPCuuXTpLfPuOz8xP714wVx4/bx59ezJ2ncIqp4hcCKhKr3SRBdsuk872Jw9N+A9P+CN4md3AjKxEATbNqZ1IqOi1bwuG6PWrlfaUQF0Mf1ItW/rcnlU25VtqDx6VdvnBd6SSbXnrWcVeAKrECphuXBb1Zm37Yma2D7dtk33/a5vR2Z31/4jCLrWI9gDAQhAAAIQWE4AQbCcj00VQfDjN86b186dMude+r555cyfm7OnT5gzJ58zp773nd0JAgkmp3OzJ88PuId8Zd9s7j8/EAk6M7dVMGt3ZKPsRV0VbOzUGclUu95suo0Eyp5QWREYZybJdCE/YK4wq9hd2Kfrt6naX70uidr3MG3ZdphWTi3SHK1NEye2VJkIQwRB0ZXFSqoTVdEAKxCAAAQgAIERE0h1nR3cMwRnTj5rTjzzTfPC04+a559+xC7PPfWwefH4sd0JgjyInSyMZstdAB1ESwAaewYg2B8JTu13Y2+ufhpUT+0JyhdfJBXwun1S93RmZtPQLjdFSdfrCslnVRsqT6V9OsjPp/QUrIJ6Pd9D+5dth2mZXb7wCffpMrLuhIJ7nsAx0vkcC8dL+d+xVe4QdKxDMAcCEIAABCCwggCCYAUgSU79HoKNpwzlU4TCXwCSEeby+YHcQRvw5tOF5LkBO3ydBZzZw79Zmh7VLtFkQWvx7ITOtKRe9QuoxQi8b1cs4C1tLJqJtlFa50RD1D477z6vczZTDxkv8z1mlw7Edbpa1205QRbbF9658Pyrasceicp+7X+31hEE3eoPrIEABCAAAQisIoAgWEUoku4eHI4kLd1V9YzANoJgaYMkQmAHBBAEO4BOkxCAAAQgAIEtCCAItoC3btFPfepTJiYK5NeHZImlSRn+INAnAgiCPvUWtkIAAhCAAAQSv4dAHiRo4y+VqqmyfdM7BFX1sR8CQyKAIBhSb+ILBCAAAQiMgUCqWNo+VDxUQTCGAwMfIbApAQTBpuQoBwEIQAACENgNgaSCYChvKg67puk7BE3XF9rLNgTaJIAgaJM2bUEAAhCAAAS2J4Ag2J4hNUAAAooAgkDBYBUCEIAABCDQAwIIgg06qekR/abr28AlikCgMQIIgsZQUhEEIAABCECgFQIIglYw0wgExkMAQTCevsZTCEAAAhAYBgEEwQb92PSIftP1hS69feMd8+vP3W2O/+S7YRLbEGicAIKgcaRUCAEIQAACEEhKAEGQFG+88qbefByv3d/7g6sXzN87/q/ML/3Rr5pffvIfmmM/3PMzFFvyxt3yLcHy1t/iTcFFnpor9s27+o27Ncttmy36VuBtK92g/K7838DUFEUQBCmoUicEIAABCEAgHQEEwQZstx3RX1V+VXpdk0+/94r5W0/9cysGRBDI8u//z7yiuAgCFcTboHZmquRDRSW72x3auz83894YvztsKVpGEKSgSp0QgAAEIACBdAQQBOnYVtYsAf+tWz83H35YLrJ969bPzM0bV806guD5t/+3+Y3v/pZ574MDr70XL/6F+Zt/8mueGJj/3z80f2n+0stXbgSCwITbZc5Orsndgenc7HfSuHEZhSAYV3/jLQQgAAEI9J9AUkEw1BeTrROwxw4RKX/z5vV8uWZu3rxmbty4Zi4fvGPefGO/tiB44kd/Zn75yX9kg/5f/bN/bd68/rZt7o9+9Gfmb/zxP/bEwH997VsxU9S+QABIgF3MGQrSPLGwb+bTcqpRVkTnz9fnMyPTkGSZzlXYbkf2XXl3RyJWZ2yfMt/aFNRdJFeUjba93N69mbN1ssBnNpuayWRmvu3xMcZ47WwxFavwp9srCIJu9w/WQQACEIAABEICCIKQSAvbIgiuX79cBMguUJbPH756xgoCJzqqPsXMz/7Fb3tB/9/5039p/tPLf+DtE2HwxxeeqeGVBMIq2J244FyK6gA/2PaEg2tG58/rdeLCzvN3det80swsEwuxOmP7XHPFZxn4u+aMyfZ5IsTmr2g7FxaFGPLsLRoKmGQ+lm3ourO0wh4rDtTULF3lQNYRBAPpSNyAAAQgAIHREEgqCHhTcfw4kiD/ypX3zMHBu+bSpbfMu+/8xPz04gVz4fXz5tWzJ2vfIfjwLz8095/+XU8AuGcF5FOmDL148WTciIW9Ooh1o9oucA3StEDIR7/LYFgq1vn1epAWjJxbYSSRc6zO2L4FH/IdeV4bhNt1J0BUgTyPFmOZCFhirzW/vNMxKZ65WFIm0r7cZSgEgjJpKKsIgqH0JH5AAAIQgMBYCCAIdtDTIgh+/MZ589q5U+bcS983r5z5c3P29Alz5uRz5tT3vlNbEDjTf/fcf18QBfIw8en3zrksNT7DoDYbWc8C1zAt3JYYXqbLuEBXp+t1MUNtR4JlbahfZ5YS26fLuHWbrxAXVYIgsl/bZyurslf41BVMfjsIAtdLi58iJmJ/qU5UsbbYBwEIQAACEBgbgVTXWXl8YMIdgvjhJILgzMlnzYlnvmleePpR8/zTj9jluaceNi8eP7a2IJBWHv7Bk/ZnReXOgPzMqPzc6Hp/KvCVgjZYdwGvFgfZ1J5ydLxsRYLw7E6BrkuvS169LetV8/6zess6Y+2U+8ze3JSPJuhpQnpd5bd2xNrW9kl+tS3Th9yDyx4flcc2obdl3Qklx9UXCNqqIaxzh2AIvYgPEIAABCAwJgIIgh30dqr3EDz95gv2BWTyIrL1/7LAtZxC48RAXpOdS58/YzCblT9RqvcXzx2EAbGuS6e5AFk9uyCj+rE6Y/s8JwP7vTk5flqRZIP6oG0tAGz92t5MXFhG05mZ1blDIHV47WgWngOD2UAQDKYrcQQCEIAABEZCAEGwQUe7B303KBot0nR90UbYCYGWCCAIWgJNMxCAAAQgAIGGCCAIGgJJNRCAQEYAQcCRAAEIQAACEOgXAQTBBv3V9Ih+0/Vt4BJFINAYAQRBYyipCAIQgAAEINAKAQRBK5hpBALjIYAgGE9f4ykEIAABCAyDQFJBwJuK6x0kTd8haLq+el6QCwIZAQQBRwIEIAABCECgXwQQBP3qL6yFQOcJiCDYZok5mOpEFWuLfRCAAAQgAIGxEUh1neU9BGscSU2P6G9T3+RLf/UznF+arGE9WSHgExAxsOlfVdlUJ6pN7aQcBCAAAQhAYEgEUl1nBy0IhnQAaF+cGHCfkibiYtmiy7MOASHggvqrV68aWa5cuWKXy5cvG1kODg7scunSJXPx4kXz1ltvmQsXLpjXX3/dHD582G6HJFOdqMJ22IYABCAAAQiMkUCq6+ygBcE2I/Cxg6wr9Tkh4D7dwSGfy5aYT+wbLwEEwXj7Hs8hAAEIQKCfBFzM17T1gxYETcPatr4m33ysxcA2B8feTL0BeFKuT+f727pbll/59uIya4q1/fnUTIrXHpv8DcszsxdpzOadzo14L2wa5RBpb5e7EAS7pE/bEIAABCAAgfUJbBPzLWtt0IKgKyP6rgNW2bMq3dXjPt3dALe93eeemU2mZjMdsKTs/txMJyr43p+buY3El5TZzhG/tLSfB/jG7Jv5dGIms5mZaZuKEmLTxEy8/JsyKSrt7AqCoLNdg2EQgAAEIACBKAEEQRRLv3ZKwH/r1s/Nhx+Wi2zfuvUzc/PGVfsMQF2P3B2CuvlX59smQF9SVu4OFAG2tmJJGZ1ty3UZ8V8c5Ze2lUjJ25C8s7kWEPndBH13YUt7ulQcQdCl3sAWCEAAAhCAwGoCCILVjBZyrDvivlBBsGPb+qT8zZvX8+WauXnzmrlx45q5fPCOefON/dqCwIkB9ylmSt3LlsCVyGYkQLej+24akQug81H2fHrR4W9LOZdHRt/DiThZuh+UV5SJtpfbtSd3GrJ2yrp8WxaatncEYiP8UqfzJ0chbUsF3h0Fs7gdIdfXXTFB8PGPf9x87GMfMx/96EfNRz7yETPRfTuZ8FBxXzsbuyEAAQhAYBAEEAQD6EYJ2K9fv7wQZEnQ9cNXzxQBvbgqeWOfss8JAffpDg75XLbYCiv/5YF38ehAsL03y0baZcR/IfIO8i60UQbuZdGwTLDt2jOyX03jsaIhD/KjtujGpWwQ+NvkcL/Yl9cZCgLbfqwO3U4/12OCQH5pqEoQ8CtD/exnrIYABCAAgeEQcDFf0x7xDMEaRF2QvkYRL6uUv3LlPXNw8K65dOkt8+47PzE/vXjBXHj9vHn17MlCBHiFKja0GGjm4AgCcht4q5F/CcrdCPokfNg2KFthsx19n0xMJgqCMlXt2YDcH+WXh31tHXmZ8o5B2HAY+Lt0f783rWhBECix4IoP5LNKEMhPjoZ3CPjZ0YF0Om5AAAIQgECvCTQT8y0isILg6NGjiykJ9qRyIoGpSaoUQfDjN86b186dMude+r555cyfm7OnT5gzJ58zp773nbUEgRgoPJtjGgvQq0fG7a/xVAX3S+jZcjaar9tekC9/MDgTFVlDvi26cT/wL1P0flkPhI++IzHCOwTuPQRuyhDvISiPHNYgAAEIQAACuyTQXNzne8EdAp/H0q0m7hCcOfmsOfHMN80LTz9qnn/6Ebs899TD5sXjx9YSBF/6q6BVlub+wsA7C5SrR99ler17YDcsq6zam6tfLsqmDmV1hmWq2gv227sCi0KltEW1vc4zBK5YeIcg3Hb5BvC57A4BLyYbQAfjAgQgAAEIDI4AgmAAXdrUewicGHCfgkbEyrJlNb4wQM8fqNWj5zIsX/FOgeJ9Bnro3jaaBfTFw6kqfaGMDfbVaL3Nm9k1m02LZy+KKips0b7GhYLUuSgqbLlQAKx8TkG31q91BEG/+gtrIQABCEAAAgiCDY6BbUf0wya7Up8TAu7THRzyuWwJ/enHdkSorGN4GOCvU7byDsNalXQ2M4Kgs12DYRCAAAQgAIEoARfzRRO32DnoKUNbcOl8US0GUh0c3YCwpSCwNzqCNxXXdMzewShuR9Qs1KNsCIIedRamQgACEIAABPLnR1OAGLQg6MqIflXHbWufuxtQVf8w9m8vCIbBoXkvRBA89NBDZj6fmwcffNB8+ctfttPOvvCFL5jPf/7z5rOf/ayRPHfffbe56667zJ133mnkBwiOHDliDh8+bORnSMO/YYvT0Fu2IQABCEAAAu0SSHWdHbQgaLeLaA0CEEh1ooIsBCAAAQhAAALZL0ym4NC6IJARx02XX/rkbxsWGDR9DGx6PPa53MHBQYrzSYM/g5vEPCqFAAQgAAEI9JpAqoG3nQiCTXtCAsHHzrzPAoPGjgE5po4dO9a7RcTIpn8yTSjVX6oTVSp7qRcCEIAABCDQJwKprrNWEMi/Nv7ECRfIXL161ay7OEHwpd971rDAoIljwAmCNo7/JtvY5nskzwyk+kt1okplL/VCAAIQgAAE+kQg1XW2l4Lg3z30v8wYlmde+5nnZ9vbY2A8RkEgDxCn+kt1okplL/VCAAIQgAAE+kQg1XV2Z1OGrly5YtZd3B2C3/qd42Ysyx13/aHna9vbQ+fcd0Gw7ndI8suvCaX6S3WiSmUv9UIAAhCAAAT6RCDVdbaTguDjH/94VCw4QfCZB58yY1r+9PwHnr+pt8fEdoiCoOr748TDtj93u+zEmepEtaxN0iAAAQhAAAJjIZDqOrszQXD58mUTWz72sY8ZWWJpThDc+eVvm7Etf/83f8/zOfX2WPj2XRDEvifLvkOSX94zkOov1Ykqlb3UCwEIQAACEOgTgVTX2U4Jgo9+9KPGLbFAxwmCw1960oxh+ZOzH3h+tr09BsZDFATuOySfse+RvHQs1V+qE1Uqe6kXAhCAAAQg0CcCqa6zOxME8jvoevnIRz5i9KLT3LoTBL/5hW+ZsSzTO/6z52vb20Pn3HdB4L4b+lN/j2Rdp8m6vIE41V+qE1Uqe6kXAhCAAAQg0CcCqa6znREEk8nE6CUMYmTbCYJ/8fnHzZiWb730vudv6u0xsR2iINDfI1kPv0vuJ0tTnABTnahS2EqdEIAABCAAgb4RSHWd3YkguHXrlrl06dLCogOZWLoTBL/+2WNmbIv4rn1Ova3bGvJ63wVB7Huy6nt09913Jzv/pTpRJTOYiiEAAQhAAAI9IpDqOrsTQfD++++bixcvRhcXzMTSnSC4498+Ysaw/M9T1zw/294eA+O+C4LY92TZd0jy33XXXclOfalOVMkMpmIIQAACEIBAjwikus5aQSD/2vgTJ2S6wvXr181bb71VuUhAE0t3guCf3vM/zFiWv/4P/qPna9vbQ+fcd0EQ+55UfX9c3jvvvDPZ1z3ViSqZwVQMAQhAAAIQ6BGBVNfZnQgC+eWTCxcurL04QfBPPv3fDAsMmjgG+i4INvkeHT16NNmpL9WJKpnBVAwBCEAAAhDoEYFU19mdTBl67733zOuvv7724gTBr/2b/2JYYNDEMdB3QbDJ9+jIkSPJTn2pTlTJDKZiCEAAAhCAQI8IpLrO7kQQHD582GyySPAmyy/83S+wwKCRY8AJApnK1sdlk++RlEn1l+pElcpe6oUABCAAAQj0iUCq62zrgkB+AtHNZV7389ixY0aW3//932eBQSPHgDum+vgpJ7B1v0Muf6qTX6oTVSp7qRcCEIAABCDQJwKprrOtC4I+QcdWCECgmkDspBTbV10DKRCAAAQgAAEIrEMg1XUWQbBOL5AXAhAoCMROSrF9RQFWIAABCEAAAhDYikCq6yyCYKtuoTAExksgdlKK7RsvITyHAAQgAAEINEsg1XUWQdBsP1EbBEZDIHZSiu0bDRAchQAEIAABCCQmkOo6iyBI3HFUD4GhEoidlGL7huo/fkEAAhCAAATaJpDqOmsFgfxr4y+VE23YThsQgMBqAnzHVzMiBwQgAAEIQGBTAqmuswiCTXuEchCAwAKBVCeqhYbYAQEIQAACEBghgVTXWaYMjfBgwmUIpCKQ6kSVyl7qhQAEIAABCPSJQKrrLIKgT0cBtkKg4wRSnag67jbmQQACEIAABFohkOo62ylB8OyDD5h7T2ie58y9v/J18wc/UvtOPGF+8a7vmh+oXatXI/WsLtRCDrHrAfNLn/xtu/xi6GsLFmRNhHxk+wnzbGvt09BQCKQ6UQ2FD35AAAIQgAAEtiGQ6jrbKUFgJNh/8FzJ6cQT5o67vm7uePSdYt8PHvW3i4SlK2HAuzRzi4mBXeL/TgLxwI4WCdDUsAikOlENixLeQAACEIAABDYjkOo62y1B8KPvmjvU6L+9Y/Co3veO+YO79B0DCWSzEXZ/dD0LcO998Ov2bsL/Mzrgzcq4OxEiMGSEvgzE87yPPlGM3Lu8xkj75Yi+FirGtpHbUoiarC1bf7FPHwDaLtkv20+YZ3J7nf3Z3RBVl3cnIa8jaq+rM2bX143U/wt3fsvcre5SZD7F7ArrMGaRnfaN9TESSHWiGiNLfIYABCAAAQiEBFJdZ7slCGzA7QJ+Cb5l2or7NMZEBEMRlHtTibLguUgrBEFMUIRTY7KyxZ2KylF7yVeWFfFSlMl7r5wCFbbrutcPvCXAlulQmYB5wLszInUV/kR8LdoO7I3bUMUnbld1HaX/riSf4yaQ6kQ1bqp4DwEIQAACEMgIpLrOdkwQZKPONvCV4D8fVS8CUplCVEwf8oPpbHTdiYl42h13hc8oSKAeBvLxssVzDCfKOwflXYmwjHSa7CvvJshdgvJOgzus/TwLdymKZyfC+vW2Xnftag4xG5aVqVtHjJ3zi8+xEkh1ohorT/yGAAQgAAEIaAKprrOdEwTuLsCzj369DKBl1PvBc6YQBpbMsqA2lvbAwvMIDrAdmS9G+2Nl8wB7YWReB95u3dUa1uP268+qPOH+ZdvrpLm2l5WRPDpdr7vy5afPrtzP2jgJpDpRjZMmXkMAAhCAAAR8Aqmus90TBPm0oTvsdCEH4Zy5Vx4uLoL2bL8IhOKOQWWwLnnLoNYr46r3pipJ3rJeN43HzuPPhYktJuvFXP5stLywxWaI7SsazFdKu/yUxf2e3Qu+Vthr/SrTyjbC+pdtr/JD0kMxVLbE2rgIpDpRjYsiYOxqEQAAEmpJREFU3kIAAhCAAATiBFJdZ60gOHr0aLzVhvfWdcILwnMbJCAu5skXdkkgmz/sWgTnkrg6wM3qUuWLh36zsvLAbfawsQ52df4ngp9E1Wn5LyXJtKfCvth8+6ytYjqS55du1/lU7Wvc3vy5iwUbFtsVvuJvJmqC9KgfEX8L+1kZK4G63/Gx8sFvCEAAAhCAwDYEUl1nO3iHYBtMTZQNguEmqkxaR9/sTQqDyndMINWJasdu0TwEIAABCECgEwRSXWcRBAvd27cAu2/2LgBnx4AIpDpRDQgRrkAAAhCAAAQ2JpDqOosg2LhLKAgBCIQEUp2ownbYhgAEIAABCIyRQKrrLIJgjEcTPkMgEYFUJ6pE5lItBCAAAQhAoFcEUl1nEQS9OgwwFgLdJpDqRNVtr7EOAhCAAAQg0A6BVNfZnQuCT3/604YFBhwD/TgGVp3uUp2oVrVLOgQgAAEIQGAMBFJdZzshCMbQgUPzUQJ4/vpFYNs+q1M+1YmqX6SxFgIQgAAEIJCGQKrrLIIgTX8NvtY6weHgIfTMwW37rE75VCeqnqHGXAhAAAIQgEASAqmus1YQyL82/mJO1Aky2rCNNtYjQL+tx6sLubftszrlY9/xLviODRCAAAQgAIEhEEh1nUUQDOHo2IEPdYLDHZhFk0sIbNtndcqnOlEtcYskCEAAAhCAwGgIpLrOMmVoNIdQs47WCQ6bbZHatiWwbZ/VKZ/qRLWt75SHAAQgAAEIDIFAqussgmAIR8cOfKgTHO7ALJpcQmDbPqtTPtWJaolbJEEAAhCAAARGQyDVdRZB4B1Ce2Y2mZhJsUzNfN/LwEZOoE5w2AVYe7OJmYaduDczk9neEvPkOBhe32/bZ3XKpzpRLekskiAAAQhAAAKjIZDqOosg8A4hPxDcn0/NZDo3u9EEvi2emR3YqBMcdsBMYyLBv4iEpXrAdJv9ply37bM65VOdqDb1mXIQgAAEIACBIRFIdZ1FEHhHSRgIhtte5sQbu2x7tWt1gsPVtbSQY39uppOZKe8HCFe9HbOh2+xjFtfZt22f1Smf6kRVxz/yQAACEIAABIZOINV1FkHgHTlhIKi3s/XZbGomLqC0wWY5xagcdc7L7UkwmqV701a8ci441fX/ivlkMW1pYiaHv27m02BUW0a+d3b3wti3S3voOrux77ML7hjI3YJiiljRgYv9Xs460mnGmGhfdhNGnYB+meV1yqc6US2zizQIQAACEIDAWAikus4iCLwjyA/2/ClDkqbno2fbRQxpA0M37zxLKwL2hTSXz9gpLZlYiNXv59Pz3ldPe/Eca3yjTnDYeKMbVij96ARZNTfh73hXrYsBS9L2ZkU7G5qatNi2fVanfKoTVVIwVA4BCEAAAhDoCYFU11kEgXcAZEF5MWLs7gTYPDoQdCPDbnQ/q6QMNoO8Nu7PR/i9EeV8dNqqirBMbNu1t2dmO7w7IN7WCQ49tLvcEOaWl9wtcEF/bpDcMSjuxrg0zV6vSxm1XdmXu3S2uu1t+6xO+VQnqmqvSIEABCAAAQiMh0Cq66wVBPKvjb+YE3WCjDZsy9pQwd5Co0GaDQZdgJ6XLh5WDfIaNW0lUi7edliHzE7JRrrd54KJLe7oVr+tcjwXAjKFSwspry+0WNDs9bq0o7a98qts2H36tn1Wp3zsO757z7EAAhCAAAQgMAwCqa6zCALv+FDBnrdfNsI02Vbz+r3gMEtz01SyeeZOPARpRTux+t2IdZ5J2pjOzCwc5S7qaG+lTnDYnjWrW7LTv7wpX/a2Tfkchu0/x1v3hRJz0oy9o6Dz6Wlkq+3YZY5t+6xO+VQnql1yo20IQAACEIBAVwikus4yZcjrYR0IegkRQeCmDbmHUl2QKOWyerIHkLP04lkDSbbBpys3yX8Tf7Ht4oFXVdjuU9uhlW1t1wkO27KlVjtewO9KZMG+nTLkCa2gL/S0otlMPWtQ1Zeu/m59bttndcqnOlF1iyTWQAACEIAABHZDINV1FkGQpD+DgLLBNsrnFBqsdIOq6gSHG1RLkYQEtu2zOuVTnagSYqFqCEAAAhCAQG8IpLrOIgiSHAKJBIGdMrSrF6X5oOoEh34JtnZNYNs+q1M+1Ylq1+xoHwIQgAAEINAFAqmuswiCJL3btCBwU1v0tKQkhteutE5wWLsyMrZCYNs+q1M+1YmqFUA0AgEIQAACEOg4gVTXWQRBxzu+q+bVCQ67avtY7dq2z+qUT3WiGmuf4TcEIAABCEBAE0h1ne2MIJBgg6VfDOQApc/612f6xLLOOoJgHVrkhQAEIAABCDRPYPCCoHlk1JiSwMHBQcrqqTsBAemzOkF9VdN1yqY6UVXZxH4IQAACEIDAmAikus525g7BmDpzCL4iCPrXi04QHDt2bOM7O6u8TnWiWtUu6RCAAAQgAIExEEh1nbWCQP618Rdzos6oYxu20cZ6BBAE6/HqQm4nCOQ7t+myyo/Yd3xVGdIhAAEIQAACEKhHQK6zKZZOCIJNgxPKbR7YwQ52mxwDq05XCIJVhEiHAAQgAAEIdIuAXLt3PmWoW0iwBgIQ2IYAgmAbepSFAAQgAAEItE8AQdA+c1qEwKAJIAgG3b04BwEIQAACAySAIBhgp+ISBHZJAEGwS/q0DQEIQAACEFifAIJgfWaUgAAElhBAECyBQxIEIAABCECggwQQBB3sFEyCQJ8JIAj63HvYDgEIQAACYyXQ+YeK5acSv/KVr2z8M4mb/JLKrsqIn/yc51i/isPwG0EwjH7ECwhAAAIQGBeBzgsCCZJl2dvbG/zifB3XIYi3QyKAIBhSb+ILBCAAAQiMhUDnBYGM1o/pb2z+jqlvx+ArgmAMvYyPEIAABCAwNAIIgo71KIKgYx2COWsRQBCshYvMEIAABCAAgU4QsILg6NGjrRizSbAwtgB5bP62cuDRSGsENvmOt2YcDUEAAhCAAAQgECXAHYIolt3tRBDsjj0tb08AQbA9Q2qAAAQgAAEItE0AQdA28RXtIQhWACK50wQQBJ3uHoyDAAQgAAEIRAkgCKJYdrcTQbA79rS8PQEEwfYMqQECEIAABCDQNoEeCoI9M5tMzKRYpma+3za2ivb252Y62c4eBEEFW3b3gkBjguC+Q+o7fsjcl8T7+8yhyW3m9uO6cr1P1mNt6zy6bOr1Ntpto40Ip+O3m9sW+iKSb+tdO/Jva7vXrWAsfoZcxup3yGHdbbitS2yI+XsqCMqge38+NZPp3OxGE4g4KW1p4gBBEDRBkTp2RaARQWCDQxWIH7/d3J5EEcQugnqfrCs7Cqg6T7GzhZVl7YZp4XZd8zYtV7f+bfKFtoXbderepEyderuWZyx+htzH6nfIYd1tuK1LbIj5ey8IjGk+KK/f0c23jSCoT5+c3SPQiCCQuwO33W68gfskrsYugnqfrCMIkqDfqFLdN1JBuF2n0k3K1Km3a3nG4mfIfax+hxzW3YbbusSGmH9ggiAL0GezqZlMZmZPesxO4ymnGM3sTknIg/k9meaTpU/13COvXF5XXiar/1fMJ4tpSxMzsRUHAiFax76ZT2P2ZIcXgmCIX7Px+NSIILCB3sTc5s/lySDauwfl9+eQunNw36Fy/6RIyC9098mUlCy9rDd2EdT7ZL2GIFhik1Fpt91+e2SK0jrHRpUvsl/5/om/7W9bFlVlw/bzfE6NKftlmmaBVYqptMZ8i7Z7yHzJ/Affp9DHT/yGuf22wL6osNyVfz6vSXFcZfYcOnSbkX2Zn7cZt20Pb8XZ7wO/rPoqLIqlyjp8u7btR/kOlsdIhLVNPG77yk37zfL7vjgOt6vvreQ7frtwCr/H+hiOtKm+G6VtzfpdiNO69nr94c4xue0b1bHIPTuG/pr5RNe/F7r7WN8pgd4LAn/KkATkE1MG9tl2IQK8Of5ZWjHdaCFNTQXam+V1xupX+ZzIsPOXJK9Kc3XszXLxEO93BEGcC3v7QaAZQSC+lkFDeRGXC6a68NmLavgMgJTVQUFWprjj4JXR+RxfvU/W3cXapcfrL2xcqL+0NwtmYvbqupetB77Y5yycfdru0Ea3PSnvvHh26jZ1PVl77fnm2GgbpDsP5eIw2O/1c5avFIJSrGRfeqjr2JV/oU9a/GY2+aJV+eH1W5i39DL2HWilH+WYdA1Jv912WyHs5fi3fuk8hcmhL9l28b21x7ri5B37RSXR774zJxOw+hgruab5blbZK745OxaPhXo+Z3yW+VYcQwHvbn0vdN+xvmsCVhDIvzb+NgkWFgPkPJAvVL8bvRcPgiDcBvk63Zi92cRkAiHIK6Vdmjeyn4+8xe4AhO3p7ao68v2laPHJL/rrp7MFgS4T2OQ7vtQfGwDlF2677gLgrJR3ccuDhmwE0V1wg4uvvf66QGAxbTGQ8tvLWy0v6MtskjRv6lOsvaXeB4lheb2t16XYqu0aAfOufLPtqjsecq63kc8qnyTd9dd95pDH3qFUdbTp36Y+LbNxoY+dj0H/L6tD0jxOio+uru66qu++Q7cZO8Jv6xeBn38nrT0qWLZ1h+2uu+0MVOXa9HuhL5QdoX+5/+5Oh/2sfXxrhu5Yz3wvz4Wxtl3ejn0vXLfx2QkCPRUEauTdwxgE+WsJgmwqj437I+WyZoL6tQCwGVR6ZR1ZTfbOxsSJk9IJBEHJgrX+EWhcENg7+7dlAeGqC3wRDKrgY+FCnd15yEbWdL6ctdeGXFjdhVT3hbrgevmzPMWFWdKaDLYWfFF2LE0Tu3Re2dYcOuZbhGlOthRidkfoUzalREZGi9Fo7VpYJtJOsr6LtFXLp0i5wsaFPtXOKjbL6pC0Ro9R951ygadsHzL3LbRTTv/JvovK3rCfam0731U9rfqt2l1lb8SuzPrt6lh2XLjvg/t0tMpP1XbEvqLuhX5U5crKWOspgd5PGfK5q4DcJsi2Crq9ID1LK0bql6UVjcTq1+JEpwf1F3WUKyIKivbz3QiCkg9r/SPQiCC473b1U6BZ4Jrd/paLjxvdd3OA84Bd7g64wMZe0PQdAjUaGVzs5EJXlMvvHhRTHmzAtUIQ2DwVNgVpzUxLcH7JsaEvxno9THPb1RzKI03Xs4R3Ut+ydospD4Vx2jbnk+aRHxO3HTKH3Gh0Udat6Dra9k/xd+Z4fRjzaZWNgf/RelfVUR6/2x+juSgLpgodOuSmfRUG2pUyQNX9UsVB+xrmd/Xq/W36rdtdZX9m1/rHt25jlW+aVZe/F67f+OwCgYELgvCh4sXgPXtAOLs9XTxrID1jBYK6bR2dMpRNM7K3/GLpsTrkGYLodKfscEAQdOFrgQ2bEmhEEOTBZvE9yYYQM5NsQO++l/qilwkHW8YLCLOLaPaAXVZOV+dGyou2nKiwrUnZVYLACZOYTVZhFN/3bR/Y9AWAGKgDhGwKkPUjd9CKnWC6TTUH1+N+nfrB4Yme92ybL98V0bhvXj+7KUOrfMx8sH77neycW2DWnn/hceJ8CngHfWoN91joYz4sq9wM66mso+lj1Pmp7LRtq21vap/7foW+rLvtfA/KteZ30G7IP9z27Kp7LARteHUovmFbOZrOfi9c1/G5cwI9FARNMdOj+U3VuX09CILtGVLD7gg0IwiatD+4iDZZ9bp12Qu4C4DWLbxt/sQctvZN7GuGjQQ+lXpgU4xb+7dpwy2XG4ufIdYR+M33Iux0tkMCCILdvNEs7IdiG0FQoGClhwQQBNWdZkfovDsQ1XmbT0krCLb2TU/52sZ5CewSMN7av218arHsWPwMkQ7eb74XYZezHSGAIEAQRA4LdkFgMwIIAs1NTWOy0wSbGQHXLdRfb1oQNOSbHZmV6VZ6ykN9r8qczp5t63E1uvrcVLBd9p2zKcXnWPwM2Y3Fb+cn34vwCGB7kcCIBcEijC7s4Q5BF3oBGzYl0D1BsKknlIMABCAAAQiMhwCCoGN9jSDoWIdgzloEEARr4SIzBCAAAQhAoBMEOi8IvvKVrxhZxvA3Jl/H0J9j9BFBMMZex2cIQAACEOg7ASsI5F8bf5sECwcHB1YQyMj50BcRBOIvfxDoK4FNvuN99RW7IQABCEAAAkMh0HlBMBTQ+AGBMRBAEIyhl/ERAhCAAASGRsCbMiQX89TL0ADiDwQgUBJAEJQsWIMABCAAAQj0hYAnCFIbnVpsUH96QQdjGOtjIDxn6DTWOVY4BjgGOAY4BjgG+nEMFILgM5/5jJENWWR92dJ0Pmnr6NGjS9vEvuV9Ar9FPnWPU46/RXbrfN/gB791jpe638u6+Tj+OP7c8Sefhw8fNnfeead95tAdQ3xmsR0c4LDqGPj/O+59vuQpdhAAAAAASUVORK5CYII=;" parent="1" vertex="1">
          <mxGeometry x="165" y="600" width="519.62" height="350" as="geometry" />
        </mxCell>
        <mxCell id="DpXfg-_9id3skqWG6rgp-4" value="" style="endArrow=classic;startArrow=classic;html=1;rounded=0;entryX=0;entryY=0.5;entryDx=0;entryDy=0;exitX=1;exitY=0.5;exitDx=0;exitDy=0;" parent="1" edge="1">
          <mxGeometry width="50" height="50" relative="1" as="geometry">
            <mxPoint x="240" y="160" as="sourcePoint" />
            <mxPoint x="600" y="160" as="targetPoint" />
          </mxGeometry>
        </mxCell>
        <mxCell id="DpXfg-_9id3skqWG6rgp-7" value="" style="endArrow=classic;html=1;rounded=0;entryX=0.5;entryY=1;entryDx=0;entryDy=0;exitX=0.75;exitY=0;exitDx=0;exitDy=0;" parent="1" source="DpXfg-_9id3skqWG6rgp-1" edge="1" target="DpXfg-_9id3skqWG6rgp-9">
          <mxGeometry width="50" height="50" relative="1" as="geometry">
            <mxPoint x="570" y="440" as="sourcePoint" />
            <mxPoint x="860" y="350" as="targetPoint" />
          </mxGeometry>
        </mxCell>
        <mxCell id="DpXfg-_9id3skqWG6rgp-9" value="" style="rounded=1;whiteSpace=wrap;html=1;" parent="1" vertex="1">
          <mxGeometry x="600" width="370" height="290" as="geometry" />
        </mxCell>
        <mxCell id="DpXfg-_9id3skqWG6rgp-10" value="&lt;font style=&quot;font-size: 36px;&quot;&gt;Domibus blue&lt;/font&gt;" style="text;html=1;align=center;verticalAlign=middle;whiteSpace=wrap;rounded=0;" parent="1" vertex="1">
          <mxGeometry x="25" y="130" width="60" height="30" as="geometry" />
        </mxCell>
        <mxCell id="DpXfg-_9id3skqWG6rgp-11" value="&lt;font style=&quot;font-size: 36px;&quot;&gt;Domibus red&lt;/font&gt;" style="text;html=1;align=center;verticalAlign=middle;whiteSpace=wrap;rounded=0;" parent="1" vertex="1">
          <mxGeometry x="755" y="130" width="60" height="30" as="geometry" />
        </mxCell>
        <mxCell id="DpXfg-_9id3skqWG6rgp-12" value="" style="endArrow=classic;html=1;rounded=0;entryX=0.478;entryY=1.004;entryDx=0;entryDy=0;exitX=0.25;exitY=0;exitDx=0;exitDy=0;entryPerimeter=0;" parent="1" source="DpXfg-_9id3skqWG6rgp-1" target="qlU0DCxGw5GYlHzOYvTy-1" edge="1">
          <mxGeometry width="50" height="50" relative="1" as="geometry">
            <mxPoint x="570" y="440" as="sourcePoint" />
            <mxPoint x="-20" y="350" as="targetPoint" />
          </mxGeometry>
        </mxCell>
        <mxCell id="DpXfg-_9id3skqWG6rgp-13" value="&lt;font style=&quot;font-size: 16px;&quot;&gt;http://localhost:8080/domibus/services/wsplugin&lt;/font&gt;" style="text;html=1;align=center;verticalAlign=middle;whiteSpace=wrap;rounded=0;" parent="1" vertex="1">
          <mxGeometry x="25" y="240" width="60" height="30" as="geometry" />
        </mxCell>
        <mxCell id="DpXfg-_9id3skqWG6rgp-14" value="&lt;font style=&quot;font-size: 16px;&quot;&gt;&lt;font style=&quot;&quot;&gt;http://localhost:8088&lt;/font&gt;&lt;span style=&quot;background-color: initial;&quot;&gt;/domibus/services/wsplugin&lt;/span&gt;&lt;/font&gt;" style="text;html=1;align=center;verticalAlign=middle;whiteSpace=wrap;rounded=0;" parent="1" vertex="1">
          <mxGeometry x="760" y="240" width="60" height="30" as="geometry" />
        </mxCell>
        <mxCell id="DpXfg-_9id3skqWG6rgp-17" value="&lt;font style=&quot;font-size: 18px;&quot;&gt;HTTP zahtjev&lt;/font&gt;" style="text;html=1;align=center;verticalAlign=middle;whiteSpace=wrap;rounded=0;" parent="1" vertex="1">
          <mxGeometry x="165" y="420" width="105" height="30" as="geometry" />
        </mxCell>
        <mxCell id="DpXfg-_9id3skqWG6rgp-20" value="&lt;font style=&quot;font-size: 18px;&quot;&gt;AS4 poruke&lt;/font&gt;" style="text;html=1;align=center;verticalAlign=middle;whiteSpace=wrap;rounded=0;" parent="1" vertex="1">
          <mxGeometry x="358" y="120" width="135" height="30" as="geometry" />
        </mxCell>
        <mxCell id="DpXfg-_9id3skqWG6rgp-21" value="&lt;font style=&quot;font-size: 18px;&quot;&gt;HTTP zahtjev&lt;/font&gt;" style="text;html=1;align=center;verticalAlign=middle;whiteSpace=wrap;rounded=0;" parent="1" vertex="1">
          <mxGeometry x="570" y="420" width="105" height="30" as="geometry" />
        </mxCell>
      </root>
    </mxGraphModel>
  </diagram>
</mxfile>
